  0
SECTION
  2
HEADER
  9
$ACADVER
  1
AC1014
  9
$HANDSEED
  5
FFFF
  9
$MEASUREMENT
 70
     1
  0
ENDSEC
  0
SECTION
  2
TABLES
  0
TABLE
  2
VPORT
  5
8
330
0
100
AcDbSymbolTable
 70
     4
  0
VPORT
  5
2E
330
8
100
AcDbSymbolTableRecord
100
AcDbViewportTableRecord
  2
*ACTIVE
 70
     0
 10
0.0
 20
0.0
 11
1.0
 21
1.0
 12
210.0
 22
148.5
 13
0.0
 23
0.0
 14
10.0
 24
10.0
 15
10.0
 25
10.0
 16
0.0
 26
0.0
 36
1.0
 17
0.0
 27
0.0
 37
0.0
 40
341.0
 41
1.24
 42
50.0
 43
0.0
 44
0.0
 50
0.0
 51
0.0
 71
     0
 72
   100
 73
     1
 74
     3
 75
     0
 76
     0
 77
     0
 78
     0
  0
ENDTAB
  0
TABLE
  2
LTYPE
  5
5
330
0
100
AcDbSymbolTable
 70
     1
  0
LTYPE
  5
14
330
5
100
AcDbSymbolTableRecord
100
AcDbLinetypeTableRecord
  2
BYBLOCK
 70
     0
  3

 72
    65
 73
     0
 40
0.0
  0
LTYPE
  5
15
330
5
100
AcDbSymbolTableRecord
100
AcDbLinetypeTableRecord
  2
BYLAYER
 70
     0
  3

 72
    65
 73
     0
 40
0.0
  0
LTYPE
  5
16
330
5
100
AcDbSymbolTableRecord
100
AcDbLinetypeTableRecord
  2
CONTINUOUS
 70
     0
  3
Solid line
 72
    65
 73
     0
 40
0.0
  0
ENDTAB
  0
TABLE
  2
LAYER
  5
2
100
AcDbSymbolTable
 70
1
  0
LAYER
  5
50
100
AcDbSymbolTableRecord
100
AcDbLayerTableRecord
  2
0
 70
0
  6
CONTINUOUS
  0
ENDTAB
  0
TABLE
  2
STYLE
  5
3
330
0
100
AcDbSymbolTable
 70
     1
  0
STYLE
  5
11
330
3
100
AcDbSymbolTableRecord
100
AcDbTextStyleTableRecord
  2
STANDARD
 70
     0
 40
0.0
 41
1.0
 50
0.0
 71
     0
 42
2.5
  3
txt
  4

  0
ENDTAB
  0
TABLE
  2
VIEW
  5
6
330
0
100
AcDbSymbolTable
 70
     0
  0
ENDTAB
  0
TABLE
  2
UCS
  5
7
330
0
100
AcDbSymbolTable
 70
     0
  0
ENDTAB
  0
TABLE
  2
APPID
  5
9
330
0
100
AcDbSymbolTable
 70
     2
  0
APPID
  5
12
330
9
100
AcDbSymbolTableRecord
100
AcDbRegAppTableRecord
  2
ACAD
 70
     0
  0
ENDTAB
  0
TABLE
  2
DIMSTYLE
  5
A
330
0
100
AcDbSymbolTable
 70
     1
  0
DIMSTYLE
105
27
330
A
100
AcDbSymbolTableRecord
100
AcDbDimStyleTableRecord
  2
ISO-25
 70
     0
  3

  4

  5

  6

  7

 40
1.0
 41
2.5
 42
0.625
 43
3.75
 44
1.25
 45
0.0
 46
0.0
 47
0.0
 48
0.0
140
2.5
141
2.5
142
0.0
143
0.03937007874016
144
1.0
145
0.0
146
1.0
147
0.625
 71
     0
 72
     0
 73
     0
 74
     0
 75
     0
 76
     0
 77
     1
 78
     8
170
     0
171
     3
172
     1
173
     0
174
     0
175
     0
176
     0
177
     0
178
     0
270
     2
271
     2
272
     2
273
     2
274
     3
340
11
275
     0
280
     0
281
     0
282
     0
283
     0
284
     8
285
     0
286
     0
287
     3
288
     0
  0
ENDTAB
  0
TABLE
  2
BLOCK_RECORD
  5
1
330
0
100
AcDbSymbolTable
 70
     1
  0
BLOCK_RECORD
  5
1F
330
1
100
AcDbSymbolTableRecord
100
AcDbBlockTableRecord
  2
*MODEL_SPACE
  0
BLOCK_RECORD
  5
1B
330
1
100
AcDbSymbolTableRecord
100
AcDbBlockTableRecord
  2
*PAPER_SPACE
  0
ENDTAB
  0
ENDSEC
  0
SECTION
  2
BLOCKS
  0
BLOCK
  5
20
330
1F
100
AcDbEntity
  8
0
100
AcDbBlockBegin
  2
*MODEL_SPACE
 70
     0
 10
0.0
 20
0.0
 30
0.0
  3
*MODEL_SPACE
  1

  0
ENDBLK
  5
21
330
1F
100
AcDbEntity
  8
0
100
AcDbBlockEnd
  0
BLOCK
  5
1C
330
1B
100
AcDbEntity
 67
     1
  8
0
100
AcDbBlockBegin
  2
*PAPER_SPACE
  1

  0
ENDBLK
  5
1D
330
1B
100
AcDbEntity
 67
     1
  8
0
100
AcDbBlockEnd
  0
ENDSEC
  0
SECTION
  2
ENTITIES
  0
LWPOLYLINE
  5
100
100
AcDbEntity
  8
0
 62
7
100
AcDbPolyline
 90
4
 70
1
 10
0.641087
 20
-9859.440764
 30
0.0
 10
100.641087
 20
-9859.440764
 30
0.0
 10
100.641087
 20
-9849.440764
 30
0.0
 10
0.641087
 20
-9849.440764
 30
0.0
  0
LWPOLYLINE
  5
101
100
AcDbEntity
  8
0
 62
1
100
AcDbPolyline
 90
4
 70
1
 10
34.836400
 20
-9858.171232
 30
0.0
 10
66.445775
 20
-9858.171232
 30
0.0
 10
66.445775
 20
-9850.710295
 30
0.0
 10
34.836400
 20
-9850.710295
 30
0.0
  0
SPLINE
  5
102
100
AcDbEntity
  8
0
 62
7
100
AcDbSpline
 70
8
 71
3
 72
8
 73
4
 74
0
 40
0
 40
0
 40
0
 40
0
 40
1
 40
1
 40
1
 40
1
 10
13.141088
 20
-9847.741526
 30
0.0
 10
13.195776
 20
-9847.741526
 30
0.0
 10
13.242650
 20
-9847.698557
 30
0.0
 10
13.242650
 20
-9847.639964
 30
0.0
  0
LWPOLYLINE
  5
103
100
AcDbEntity
  8
0
 62
7
100
AcDbPolyline
 90
2
 70
0
 10
3.641088
 20
-9847.741526
 30
0.0
 10
13.141088
 20
-9847.741526
 30
0.0
  0
SPLINE
  5
104
100
AcDbEntity
  8
0
 62
7
100
AcDbSpline
 70
8
 71
3
 72
8
 73
4
 74
0
 40
0
 40
0
 40
0
 40
0
 40
1
 40
1
 40
1
 40
1
 10
13.242650
 20
-9844.639964
 30
0.0
 10
13.242650
 20
-9844.694651
 30
0.0
 10
13.199682
 20
-9844.741526
 30
0.0
 10
13.141088
 20
-9844.741526
 30
0.0
  0
LWPOLYLINE
  5
105
100
AcDbEntity
  8
0
 62
7
100
AcDbPolyline
 90
2
 70
0
 10
13.242650
 20
-9847.639964
 30
0.0
 10
13.242650
 20
-9844.639964
 30
0.0
  0
SPLINE
  5
106
100
AcDbEntity
  8
0
 62
7
100
AcDbSpline
 70
8
 71
3
 72
8
 73
4
 74
0
 40
0
 40
0
 40
0
 40
0
 40
1
 40
1
 40
1
 40
1
 10
19.141088
 20
-9844.741526
 30
0.0
 10
19.086398
 20
-9844.741526
 30
0.0
 10
19.039525
 20
-9844.698557
 30
0.0
 10
19.039525
 20
-9844.639964
 30
0.0
  0
LWPOLYLINE
  5
107
100
AcDbEntity
  8
0
 62
7
100
AcDbPolyline
 90
2
 70
0
 10
13.141088
 20
-9844.741526
 30
0.0
 10
19.141088
 20
-9844.741526
 30
0.0
  0
SPLINE
  5
108
100
AcDbEntity
  8
0
 62
7
100
AcDbSpline
 70
8
 71
3
 72
8
 73
4
 74
0
 40
0
 40
0
 40
0
 40
0
 40
1
 40
1
 40
1
 40
1
 10
19.039526
 20
-9847.639964
 30
0.0
 10
19.039526
 20
-9847.694651
 30
0.0
 10
19.082494
 20
-9847.741526
 30
0.0
 10
19.141088
 20
-9847.741526
 30
0.0
  0
LWPOLYLINE
  5
109
100
AcDbEntity
  8
0
 62
7
100
AcDbPolyline
 90
2
 70
0
 10
19.039525
 20
-9844.639964
 30
0.0
 10
19.039526
 20
-9847.639964
 30
0.0
  0
SPLINE
  5
10a
100
AcDbEntity
  8
0
 62
7
100
AcDbSpline
 70
8
 71
3
 72
8
 73
4
 74
0
 40
0
 40
0
 40
0
 40
0
 40
1
 40
1
 40
1
 40
1
 10
25.141088
 20
-9847.741526
 30
0.0
 10
25.195778
 20
-9847.741526
 30
0.0
 10
25.242650
 20
-9847.698557
 30
0.0
 10
25.242650
 20
-9847.639964
 30
0.0
  0
LWPOLYLINE
  5
10b
100
AcDbEntity
  8
0
 62
7
100
AcDbPolyline
 90
2
 70
0
 10
19.141088
 20
-9847.741526
 30
0.0
 10
25.141088
 20
-9847.741526
 30
0.0
  0
SPLINE
  5
10c
100
AcDbEntity
  8
0
 62
7
100
AcDbSpline
 70
8
 71
3
 72
8
 73
4
 74
0
 40
0
 40
0
 40
0
 40
0
 40
1
 40
1
 40
1
 40
1
 10
25.242650
 20
-9844.639964
 30
0.0
 10
25.242650
 20
-9844.694651
 30
0.0
 10
25.199682
 20
-9844.741526
 30
0.0
 10
25.141088
 20
-9844.741526
 30
0.0
  0
LWPOLYLINE
  5
10d
100
AcDbEntity
  8
0
 62
7
100
AcDbPolyline
 90
2
 70
0
 10
25.242650
 20
-9847.639964
 30
0.0
 10
25.242650
 20
-9844.639964
 30
0.0
  0
SPLINE
  5
10e
100
AcDbEntity
  8
0
 62
7
100
AcDbSpline
 70
8
 71
3
 72
8
 73
4
 74
0
 40
0
 40
0
 40
0
 40
0
 40
1
 40
1
 40
1
 40
1
 10
31.141088
 20
-9844.741526
 30
0.0
 10
31.086398
 20
-9844.741526
 30
0.0
 10
31.039526
 20
-9844.698557
 30
0.0
 10
31.039526
 20
-9844.639964
 30
0.0
  0
LWPOLYLINE
  5
10f
100
AcDbEntity
  8
0
 62
7
100
AcDbPolyline
 90
2
 70
0
 10
25.141088
 20
-9844.741526
 30
0.0
 10
31.141088
 20
-9844.741526
 30
0.0
  0
SPLINE
  5
110
100
AcDbEntity
  8
0
 62
7
100
AcDbSpline
 70
8
 71
3
 72
8
 73
4
 74
0
 40
0
 40
0
 40
0
 40
0
 40
1
 40
1
 40
1
 40
1
 10
31.039526
 20
-9847.639964
 30
0.0
 10
31.039526
 20
-9847.694651
 30
0.0
 10
31.082494
 20
-9847.741526
 30
0.0
 10
31.141088
 20
-9847.741526
 30
0.0
  0
LWPOLYLINE
  5
111
100
AcDbEntity
  8
0
 62
7
100
AcDbPolyline
 90
2
 70
0
 10
31.039526
 20
-9844.639964
 30
0.0
 10
31.039526
 20
-9847.639964
 30
0.0
  0
SPLINE
  5
112
100
AcDbEntity
  8
0
 62
7
100
AcDbSpline
 70
8
 71
3
 72
8
 73
4
 74
0
 40
0
 40
0
 40
0
 40
0
 40
1
 40
1
 40
1
 40
1
 10
43.641088
 20
-9847.741526
 30
0.0
 10
43.695778
 20
-9847.741526
 30
0.0
 10
43.742650
 20
-9847.698557
 30
0.0
 10
43.742650
 20
-9847.639964
 30
0.0
  0
LWPOLYLINE
  5
113
100
AcDbEntity
  8
0
 62
7
100
AcDbPolyline
 90
3
 70
0
 10
31.141088
 20
-9847.741526
 30
0.0
 10
40.641088
 20
-9847.741526
 30
0.0
 10
43.641088
 20
-9847.741526
 30
0.0
  0
SPLINE
  5
114
100
AcDbEntity
  8
0
 62
7
100
AcDbSpline
 70
8
 71
3
 72
8
 73
4
 74
0
 40
0
 40
0
 40
0
 40
0
 40
1
 40
1
 40
1
 40
1
 10
43.742650
 20
-9837.639964
 30
0.0
 10
43.742650
 20
-9837.585274
 30
0.0
 10
43.699680
 20
-9837.538401
 30
0.0
 10
43.641088
 20
-9837.538401
 30
0.0
  0
LWPOLYLINE
  5
115
100
AcDbEntity
  8
0
 62
7
100
AcDbPolyline
 90
3
 70
0
 10
43.742650
 20
-9847.639964
 30
0.0
 10
43.742650
 20
-9844.639964
 30
0.0
 10
43.742650
 20
-9837.639964
 30
0.0
  0
SPLINE
  5
116
100
AcDbEntity
  8
0
 62
7
100
AcDbSpline
 70
8
 71
3
 72
8
 73
4
 74
0
 40
0
 40
0
 40
0
 40
0
 40
1
 40
1
 40
1
 40
1
 10
40.641088
 20
-9837.538401
 30
0.0
 10
40.695778
 20
-9837.538401
 30
0.0
 10
40.742650
 20
-9837.581371
 30
0.0
 10
40.742650
 20
-9837.639964
 30
0.0
  0
LWPOLYLINE
  5
117
100
AcDbEntity
  8
0
 62
7
100
AcDbPolyline
 90
2
 70
0
 10
43.641088
 20
-9837.538401
 30
0.0
 10
40.641088
 20
-9837.538401
 30
0.0
  0
SPLINE
  5
118
100
AcDbEntity
  8
0
 62
7
100
AcDbSpline
 70
8
 71
3
 72
8
 73
4
 74
0
 40
0
 40
0
 40
0
 40
0
 40
1
 40
1
 40
1
 40
1
 10
40.742650
 20
-9831.639964
 30
0.0
 10
40.742650
 20
-9831.694651
 30
0.0
 10
40.699682
 20
-9831.741526
 30
0.0
 10
40.641088
 20
-9831.741526
 30
0.0
  0
LWPOLYLINE
  5
119
100
AcDbEntity
  8
0
 62
7
100
AcDbPolyline
 90
2
 70
0
 10
40.742650
 20
-9837.639964
 30
0.0
 10
40.742650
 20
-9831.639964
 30
0.0
  0
SPLINE
  5
11a
100
AcDbEntity
  8
0
 62
7
100
AcDbSpline
 70
8
 71
3
 72
8
 73
4
 74
0
 40
0
 40
0
 40
0
 40
0
 40
1
 40
1
 40
1
 40
1
 10
43.641088
 20
-9831.741526
 30
0.0
 10
43.695778
 20
-9831.741526
 30
0.0
 10
43.742650
 20
-9831.698556
 30
0.0
 10
43.742650
 20
-9831.639964
 30
0.0
  0
LWPOLYLINE
  5
11b
100
AcDbEntity
  8
0
 62
7
100
AcDbPolyline
 90
2
 70
0
 10
40.641088
 20
-9831.741526
 30
0.0
 10
43.641088
 20
-9831.741526
 30
0.0
  0
SPLINE
  5
11c
100
AcDbEntity
  8
0
 62
7
100
AcDbSpline
 70
8
 71
3
 72
8
 73
4
 74
0
 40
0
 40
0
 40
0
 40
0
 40
1
 40
1
 40
1
 40
1
 10
43.742650
 20
-9825.639964
 30
0.0
 10
43.742650
 20
-9825.585274
 30
0.0
 10
43.699680
 20
-9825.538401
 30
0.0
 10
43.641088
 20
-9825.538401
 30
0.0
  0
LWPOLYLINE
  5
11d
100
AcDbEntity
  8
0
 62
7
100
AcDbPolyline
 90
2
 70
0
 10
43.742650
 20
-9831.639964
 30
0.0
 10
43.742650
 20
-9825.639964
 30
0.0
  0
SPLINE
  5
11e
100
AcDbEntity
  8
0
 62
7
100
AcDbSpline
 70
8
 71
3
 72
8
 73
4
 74
0
 40
0
 40
0
 40
0
 40
0
 40
1
 40
1
 40
1
 40
1
 10
40.641088
 20
-9825.538401
 30
0.0
 10
40.695778
 20
-9825.538401
 30
0.0
 10
40.742650
 20
-9825.581371
 30
0.0
 10
40.742650
 20
-9825.639964
 30
0.0
  0
LWPOLYLINE
  5
11f
100
AcDbEntity
  8
0
 62
7
100
AcDbPolyline
 90
2
 70
0
 10
43.641088
 20
-9825.538401
 30
0.0
 10
40.641088
 20
-9825.538401
 30
0.0
  0
SPLINE
  5
120
100
AcDbEntity
  8
0
 62
7
100
AcDbSpline
 70
8
 71
3
 72
8
 73
4
 74
0
 40
0
 40
0
 40
0
 40
0
 40
1
 40
1
 40
1
 40
1
 10
40.742650
 20
-9819.639964
 30
0.0
 10
40.742650
 20
-9819.694651
 30
0.0
 10
40.699682
 20
-9819.741526
 30
0.0
 10
40.641088
 20
-9819.741526
 30
0.0
  0
LWPOLYLINE
  5
121
100
AcDbEntity
  8
0
 62
7
100
AcDbPolyline
 90
2
 70
0
 10
40.742650
 20
-9825.639964
 30
0.0
 10
40.742650
 20
-9819.639964
 30
0.0
  0
SPLINE
  5
122
100
AcDbEntity
  8
0
 62
7
100
AcDbSpline
 70
8
 71
3
 72
8
 73
4
 74
0
 40
0
 40
0
 40
0
 40
0
 40
1
 40
1
 40
1
 40
1
 10
43.641088
 20
-9819.741526
 30
0.0
 10
43.695778
 20
-9819.741526
 30
0.0
 10
43.742650
 20
-9819.698556
 30
0.0
 10
43.742650
 20
-9819.639964
 30
0.0
  0
LWPOLYLINE
  5
123
100
AcDbEntity
  8
0
 62
7
100
AcDbPolyline
 90
2
 70
0
 10
40.641088
 20
-9819.741526
 30
0.0
 10
43.641088
 20
-9819.741526
 30
0.0
  0
SPLINE
  5
124
100
AcDbEntity
  8
0
 62
7
100
AcDbSpline
 70
8
 71
3
 72
8
 73
4
 74
0
 40
0
 40
0
 40
0
 40
0
 40
1
 40
1
 40
1
 40
1
 10
43.742650
 20
-9809.639964
 30
0.0
 10
43.742650
 20
-9809.585274
 30
0.0
 10
43.699680
 20
-9809.538401
 30
0.0
 10
43.641088
 20
-9809.538401
 30
0.0
  0
LWPOLYLINE
  5
125
100
AcDbEntity
  8
0
 62
7
100
AcDbPolyline
 90
3
 70
0
 10
43.742650
 20
-9819.639964
 30
0.0
 10
43.742650
 20
-9812.639964
 30
0.0
 10
43.742650
 20
-9809.639964
 30
0.0
  0
SPLINE
  5
126
100
AcDbEntity
  8
0
 62
7
100
AcDbSpline
 70
8
 71
3
 72
8
 73
4
 74
0
 40
0
 40
0
 40
0
 40
0
 40
1
 40
1
 40
1
 40
1
 10
31.141088
 20
-9809.538401
 30
0.0
 10
31.086398
 20
-9809.538401
 30
0.0
 10
31.039525
 20
-9809.581371
 30
0.0
 10
31.039525
 20
-9809.639964
 30
0.0
  0
LWPOLYLINE
  5
127
100
AcDbEntity
  8
0
 62
7
100
AcDbPolyline
 90
3
 70
0
 10
43.641088
 20
-9809.538401
 30
0.0
 10
40.641088
 20
-9809.538401
 30
0.0
 10
31.141088
 20
-9809.538401
 30
0.0
  0
SPLINE
  5
128
100
AcDbEntity
  8
0
 62
7
100
AcDbSpline
 70
8
 71
3
 72
8
 73
4
 74
0
 40
0
 40
0
 40
0
 40
0
 40
1
 40
1
 40
1
 40
1
 10
31.039525
 20
-9812.639964
 30
0.0
 10
31.039525
 20
-9812.585274
 30
0.0
 10
31.082495
 20
-9812.538401
 30
0.0
 10
31.141088
 20
-9812.538401
 30
0.0
  0
LWPOLYLINE
  5
129
100
AcDbEntity
  8
0
 62
7
100
AcDbPolyline
 90
2
 70
0
 10
31.039525
 20
-9809.639964
 30
0.0
 10
31.039525
 20
-9812.639964
 30
0.0
  0
SPLINE
  5
12a
100
AcDbEntity
  8
0
 62
7
100
AcDbSpline
 70
8
 71
3
 72
8
 73
4
 74
0
 40
0
 40
0
 40
0
 40
0
 40
1
 40
1
 40
1
 40
1
 10
25.141088
 20
-9812.538401
 30
0.0
 10
25.195778
 20
-9812.538401
 30
0.0
 10
25.242650
 20
-9812.581371
 30
0.0
 10
25.242650
 20
-9812.639964
 30
0.0
  0
LWPOLYLINE
  5
12b
100
AcDbEntity
  8
0
 62
7
100
AcDbPolyline
 90
2
 70
0
 10
31.141088
 20
-9812.538401
 30
0.0
 10
25.141088
 20
-9812.538401
 30
0.0
  0
SPLINE
  5
12c
100
AcDbEntity
  8
0
 62
7
100
AcDbSpline
 70
8
 71
3
 72
8
 73
4
 74
0
 40
0
 40
0
 40
0
 40
0
 40
1
 40
1
 40
1
 40
1
 10
25.242650
 20
-9809.639964
 30
0.0
 10
25.242650
 20
-9809.585274
 30
0.0
 10
25.199680
 20
-9809.538401
 30
0.0
 10
25.141088
 20
-9809.538401
 30
0.0
  0
LWPOLYLINE
  5
12d
100
AcDbEntity
  8
0
 62
7
100
AcDbPolyline
 90
2
 70
0
 10
25.242650
 20
-9812.639964
 30
0.0
 10
25.242650
 20
-9809.639964
 30
0.0
  0
SPLINE
  5
12e
100
AcDbEntity
  8
0
 62
7
100
AcDbSpline
 70
8
 71
3
 72
8
 73
4
 74
0
 40
0
 40
0
 40
0
 40
0
 40
1
 40
1
 40
1
 40
1
 10
19.141088
 20
-9809.538401
 30
0.0
 10
19.086398
 20
-9809.538401
 30
0.0
 10
19.039525
 20
-9809.581371
 30
0.0
 10
19.039525
 20
-9809.639964
 30
0.0
  0
LWPOLYLINE
  5
12f
100
AcDbEntity
  8
0
 62
7
100
AcDbPolyline
 90
2
 70
0
 10
25.141088
 20
-9809.538401
 30
0.0
 10
19.141088
 20
-9809.538401
 30
0.0
  0
SPLINE
  5
130
100
AcDbEntity
  8
0
 62
7
100
AcDbSpline
 70
8
 71
3
 72
8
 73
4
 74
0
 40
0
 40
0
 40
0
 40
0
 40
1
 40
1
 40
1
 40
1
 10
19.039525
 20
-9812.639964
 30
0.0
 10
19.039525
 20
-9812.585274
 30
0.0
 10
19.082495
 20
-9812.538401
 30
0.0
 10
19.141088
 20
-9812.538401
 30
0.0
  0
LWPOLYLINE
  5
131
100
AcDbEntity
  8
0
 62
7
100
AcDbPolyline
 90
2
 70
0
 10
19.039525
 20
-9809.639964
 30
0.0
 10
19.039525
 20
-9812.639964
 30
0.0
  0
SPLINE
  5
132
100
AcDbEntity
  8
0
 62
7
100
AcDbSpline
 70
8
 71
3
 72
8
 73
4
 74
0
 40
0
 40
0
 40
0
 40
0
 40
1
 40
1
 40
1
 40
1
 10
13.141088
 20
-9812.538401
 30
0.0
 10
13.195775
 20
-9812.538401
 30
0.0
 10
13.242650
 20
-9812.581371
 30
0.0
 10
13.242650
 20
-9812.639964
 30
0.0
  0
LWPOLYLINE
  5
133
100
AcDbEntity
  8
0
 62
7
100
AcDbPolyline
 90
2
 70
0
 10
19.141088
 20
-9812.538401
 30
0.0
 10
13.141088
 20
-9812.538401
 30
0.0
  0
SPLINE
  5
134
100
AcDbEntity
  8
0
 62
7
100
AcDbSpline
 70
8
 71
3
 72
8
 73
4
 74
0
 40
0
 40
0
 40
0
 40
0
 40
1
 40
1
 40
1
 40
1
 10
13.242650
 20
-9809.639964
 30
0.0
 10
13.242650
 20
-9809.585274
 30
0.0
 10
13.199682
 20
-9809.538401
 30
0.0
 10
13.141088
 20
-9809.538401
 30
0.0
  0
LWPOLYLINE
  5
135
100
AcDbEntity
  8
0
 62
7
100
AcDbPolyline
 90
2
 70
0
 10
13.242650
 20
-9812.639964
 30
0.0
 10
13.242650
 20
-9809.639964
 30
0.0
  0
SPLINE
  5
136
100
AcDbEntity
  8
0
 62
7
100
AcDbSpline
 70
8
 71
3
 72
8
 73
4
 74
0
 40
0
 40
0
 40
0
 40
0
 40
1
 40
1
 40
1
 40
1
 10
0.641088
 20
-9809.538401
 30
0.0
 10
0.586400
 20
-9809.538401
 30
0.0
 10
0.539525
 20
-9809.581371
 30
0.0
 10
0.539525
 20
-9809.639964
 30
0.0
  0
LWPOLYLINE
  5
137
100
AcDbEntity
  8
0
 62
7
100
AcDbPolyline
 90
3
 70
0
 10
13.141088
 20
-9809.538401
 30
0.0
 10
3.641088
 20
-9809.538401
 30
0.0
 10
0.641088
 20
-9809.538401
 30
0.0
  0
SPLINE
  5
138
100
AcDbEntity
  8
0
 62
7
100
AcDbSpline
 70
8
 71
3
 72
8
 73
4
 74
0
 40
0
 40
0
 40
0
 40
0
 40
1
 40
1
 40
1
 40
1
 10
0.539525
 20
-9819.639964
 30
0.0
 10
0.539525
 20
-9819.694651
 30
0.0
 10
0.582494
 20
-9819.741526
 30
0.0
 10
0.641088
 20
-9819.741526
 30
0.0
  0
LWPOLYLINE
  5
139
100
AcDbEntity
  8
0
 62
7
100
AcDbPolyline
 90
3
 70
0
 10
0.539525
 20
-9809.639964
 30
0.0
 10
0.539525
 20
-9812.639964
 30
0.0
 10
0.539525
 20
-9819.639964
 30
0.0
  0
SPLINE
  5
13a
100
AcDbEntity
  8
0
 62
7
100
AcDbSpline
 70
8
 71
3
 72
8
 73
4
 74
0
 40
0
 40
0
 40
0
 40
0
 40
1
 40
1
 40
1
 40
1
 10
3.641088
 20
-9819.741526
 30
0.0
 10
3.586401
 20
-9819.741526
 30
0.0
 10
3.539525
 20
-9819.698556
 30
0.0
 10
3.539525
 20
-9819.639964
 30
0.0
  0
LWPOLYLINE
  5
13b
100
AcDbEntity
  8
0
 62
7
100
AcDbPolyline
 90
2
 70
0
 10
0.641088
 20
-9819.741526
 30
0.0
 10
3.641088
 20
-9819.741526
 30
0.0
  0
SPLINE
  5
13c
100
AcDbEntity
  8
0
 62
7
100
AcDbSpline
 70
8
 71
3
 72
8
 73
4
 74
0
 40
0
 40
0
 40
0
 40
0
 40
1
 40
1
 40
1
 40
1
 10
3.539525
 20
-9825.639964
 30
0.0
 10
3.539525
 20
-9825.585274
 30
0.0
 10
3.582494
 20
-9825.538401
 30
0.0
 10
3.641088
 20
-9825.538401
 30
0.0
  0
LWPOLYLINE
  5
13d
100
AcDbEntity
  8
0
 62
7
100
AcDbPolyline
 90
2
 70
0
 10
3.539525
 20
-9819.639964
 30
0.0
 10
3.539525
 20
-9825.639964
 30
0.0
  0
SPLINE
  5
13e
100
AcDbEntity
  8
0
 62
7
100
AcDbSpline
 70
8
 71
3
 72
8
 73
4
 74
0
 40
0
 40
0
 40
0
 40
0
 40
1
 40
1
 40
1
 40
1
 10
0.641088
 20
-9825.538401
 30
0.0
 10
0.586400
 20
-9825.538401
 30
0.0
 10
0.539525
 20
-9825.581371
 30
0.0
 10
0.539525
 20
-9825.639964
 30
0.0
  0
LWPOLYLINE
  5
13f
100
AcDbEntity
  8
0
 62
7
100
AcDbPolyline
 90
2
 70
0
 10
3.641088
 20
-9825.538401
 30
0.0
 10
0.641088
 20
-9825.538401
 30
0.0
  0
SPLINE
  5
140
100
AcDbEntity
  8
0
 62
7
100
AcDbSpline
 70
8
 71
3
 72
8
 73
4
 74
0
 40
0
 40
0
 40
0
 40
0
 40
1
 40
1
 40
1
 40
1
 10
0.539525
 20
-9831.639964
 30
0.0
 10
0.539525
 20
-9831.694651
 30
0.0
 10
0.582494
 20
-9831.741526
 30
0.0
 10
0.641088
 20
-9831.741526
 30
0.0
  0
LWPOLYLINE
  5
141
100
AcDbEntity
  8
0
 62
7
100
AcDbPolyline
 90
2
 70
0
 10
0.539525
 20
-9825.639964
 30
0.0
 10
0.539525
 20
-9831.639964
 30
0.0
  0
SPLINE
  5
142
100
AcDbEntity
  8
0
 62
7
100
AcDbSpline
 70
8
 71
3
 72
8
 73
4
 74
0
 40
0
 40
0
 40
0
 40
0
 40
1
 40
1
 40
1
 40
1
 10
3.641088
 20
-9831.741526
 30
0.0
 10
3.586401
 20
-9831.741526
 30
0.0
 10
3.539525
 20
-9831.698556
 30
0.0
 10
3.539525
 20
-9831.639964
 30
0.0
  0
LWPOLYLINE
  5
143
100
AcDbEntity
  8
0
 62
7
100
AcDbPolyline
 90
2
 70
0
 10
0.641088
 20
-9831.741526
 30
0.0
 10
3.641088
 20
-9831.741526
 30
0.0
  0
SPLINE
  5
144
100
AcDbEntity
  8
0
 62
7
100
AcDbSpline
 70
8
 71
3
 72
8
 73
4
 74
0
 40
0
 40
0
 40
0
 40
0
 40
1
 40
1
 40
1
 40
1
 10
3.539525
 20
-9837.639964
 30
0.0
 10
3.539525
 20
-9837.585274
 30
0.0
 10
3.582494
 20
-9837.538401
 30
0.0
 10
3.641088
 20
-9837.538401
 30
0.0
  0
LWPOLYLINE
  5
145
100
AcDbEntity
  8
0
 62
7
100
AcDbPolyline
 90
2
 70
0
 10
3.539525
 20
-9831.639964
 30
0.0
 10
3.539525
 20
-9837.639964
 30
0.0
  0
SPLINE
  5
146
100
AcDbEntity
  8
0
 62
7
100
AcDbSpline
 70
8
 71
3
 72
8
 73
4
 74
0
 40
0
 40
0
 40
0
 40
0
 40
1
 40
1
 40
1
 40
1
 10
0.641088
 20
-9837.538401
 30
0.0
 10
0.586400
 20
-9837.538401
 30
0.0
 10
0.539525
 20
-9837.581371
 30
0.0
 10
0.539525
 20
-9837.639964
 30
0.0
  0
LWPOLYLINE
  5
147
100
AcDbEntity
  8
0
 62
7
100
AcDbPolyline
 90
2
 70
0
 10
3.641088
 20
-9837.538401
 30
0.0
 10
0.641088
 20
-9837.538401
 30
0.0
  0
SPLINE
  5
148
100
AcDbEntity
  8
0
 62
7
100
AcDbSpline
 70
8
 71
3
 72
8
 73
4
 74
0
 40
0
 40
0
 40
0
 40
0
 40
1
 40
1
 40
1
 40
1
 10
0.539526
 20
-9847.639964
 30
0.0
 10
0.539526
 20
-9847.694651
 30
0.0
 10
0.582494
 20
-9847.741526
 30
0.0
 10
0.641088
 20
-9847.741526
 30
0.0
  0
LWPOLYLINE
  5
149
100
AcDbEntity
  8
0
 62
7
100
AcDbPolyline
 90
3
 70
0
 10
0.539525
 20
-9837.639964
 30
0.0
 10
0.539525
 20
-9844.639964
 30
0.0
 10
0.539526
 20
-9847.639964
 30
0.0
  0
LWPOLYLINE
  5
14a
100
AcDbEntity
  8
0
 62
7
100
AcDbPolyline
 90
2
 70
0
 10
0.641088
 20
-9847.741526
 30
0.0
 10
3.641088
 20
-9847.741526
 30
0.0
  0
SPLINE
  5
14b
100
AcDbEntity
  8
0
 62
7
100
AcDbSpline
 70
8
 71
3
 72
8
 73
4
 74
0
 40
0
 40
0
 40
0
 40
0
 40
1
 40
1
 40
1
 40
1
 10
58.840306
 20
-9847.741526
 30
0.0
 10
58.894996
 20
-9847.741526
 30
0.0
 10
58.941868
 20
-9847.698557
 30
0.0
 10
58.941868
 20
-9847.639964
 30
0.0
  0
LWPOLYLINE
  5
14c
100
AcDbEntity
  8
0
 62
7
100
AcDbPolyline
 90
2
 70
0
 10
48.340306
 20
-9847.741526
 30
0.0
 10
58.840306
 20
-9847.741526
 30
0.0
  0
SPLINE
  5
14d
100
AcDbEntity
  8
0
 62
7
100
AcDbSpline
 70
8
 71
3
 72
8
 73
4
 74
0
 40
0
 40
0
 40
0
 40
0
 40
1
 40
1
 40
1
 40
1
 10
58.941868
 20
-9844.639964
 30
0.0
 10
58.941868
 20
-9844.694651
 30
0.0
 10
58.898900
 20
-9844.741526
 30
0.0
 10
58.840306
 20
-9844.741526
 30
0.0
  0
LWPOLYLINE
  5
14e
100
AcDbEntity
  8
0
 62
7
100
AcDbPolyline
 90
2
 70
0
 10
58.941868
 20
-9847.639964
 30
0.0
 10
58.941868
 20
-9844.639964
 30
0.0
  0
SPLINE
  5
14f
100
AcDbEntity
  8
0
 62
7
100
AcDbSpline
 70
8
 71
3
 72
8
 73
4
 74
0
 40
0
 40
0
 40
0
 40
0
 40
1
 40
1
 40
1
 40
1
 10
64.840306
 20
-9844.741526
 30
0.0
 10
64.785616
 20
-9844.741526
 30
0.0
 10
64.738744
 20
-9844.698557
 30
0.0
 10
64.738744
 20
-9844.639964
 30
0.0
  0
LWPOLYLINE
  5
150
100
AcDbEntity
  8
0
 62
7
100
AcDbPolyline
 90
2
 70
0
 10
58.840306
 20
-9844.741526
 30
0.0
 10
64.840306
 20
-9844.741526
 30
0.0
  0
SPLINE
  5
151
100
AcDbEntity
  8
0
 62
7
100
AcDbSpline
 70
8
 71
3
 72
8
 73
4
 74
0
 40
0
 40
0
 40
0
 40
0
 40
1
 40
1
 40
1
 40
1
 10
64.738744
 20
-9847.639964
 30
0.0
 10
64.738744
 20
-9847.694651
 30
0.0
 10
64.781712
 20
-9847.741526
 30
0.0
 10
64.840306
 20
-9847.741526
 30
0.0
  0
LWPOLYLINE
  5
152
100
AcDbEntity
  8
0
 62
7
100
AcDbPolyline
 90
2
 70
0
 10
64.738744
 20
-9844.639964
 30
0.0
 10
64.738744
 20
-9847.639964
 30
0.0
  0
SPLINE
  5
153
100
AcDbEntity
  8
0
 62
7
100
AcDbSpline
 70
8
 71
3
 72
8
 73
4
 74
0
 40
0
 40
0
 40
0
 40
0
 40
1
 40
1
 40
1
 40
1
 10
75.340306
 20
-9847.741526
 30
0.0
 10
75.394996
 20
-9847.741526
 30
0.0
 10
75.441868
 20
-9847.698557
 30
0.0
 10
75.441868
 20
-9847.639964
 30
0.0
  0
LWPOLYLINE
  5
154
100
AcDbEntity
  8
0
 62
7
100
AcDbPolyline
 90
2
 70
0
 10
64.840306
 20
-9847.741526
 30
0.0
 10
75.340306
 20
-9847.741526
 30
0.0
  0
SPLINE
  5
155
100
AcDbEntity
  8
0
 62
7
100
AcDbSpline
 70
8
 71
3
 72
8
 73
4
 74
0
 40
0
 40
0
 40
0
 40
0
 40
1
 40
1
 40
1
 40
1
 10
75.441868
 20
-9837.639964
 30
0.0
 10
75.441868
 20
-9837.694651
 30
0.0
 10
75.398900
 20
-9837.741526
 30
0.0
 10
75.340306
 20
-9837.741526
 30
0.0
  0
LWPOLYLINE
  5
156
100
AcDbEntity
  8
0
 62
7
100
AcDbPolyline
 90
3
 70
0
 10
75.441868
 20
-9847.639964
 30
0.0
 10
75.441868
 20
-9844.639964
 30
0.0
 10
75.441868
 20
-9837.639964
 30
0.0
  0
SPLINE
  5
157
100
AcDbEntity
  8
0
 62
7
100
AcDbSpline
 70
8
 71
3
 72
8
 73
4
 74
0
 40
0
 40
0
 40
0
 40
0
 40
1
 40
1
 40
1
 40
1
 10
78.340306
 20
-9837.741526
 30
0.0
 10
78.394996
 20
-9837.741526
 30
0.0
 10
78.441868
 20
-9837.698556
 30
0.0
 10
78.441868
 20
-9837.639964
 30
0.0
  0
LWPOLYLINE
  5
158
100
AcDbEntity
  8
0
 62
7
100
AcDbPolyline
 90
2
 70
0
 10
75.340306
 20
-9837.741526
 30
0.0
 10
78.340306
 20
-9837.741526
 30
0.0
  0
SPLINE
  5
159
100
AcDbEntity
  8
0
 62
7
100
AcDbSpline
 70
8
 71
3
 72
8
 73
4
 74
0
 40
0
 40
0
 40
0
 40
0
 40
1
 40
1
 40
1
 40
1
 10
78.441868
 20
-9831.639964
 30
0.0
 10
78.441868
 20
-9831.585274
 30
0.0
 10
78.398898
 20
-9831.538401
 30
0.0
 10
78.340306
 20
-9831.538401
 30
0.0
  0
LWPOLYLINE
  5
15a
100
AcDbEntity
  8
0
 62
7
100
AcDbPolyline
 90
2
 70
0
 10
78.441868
 20
-9837.639964
 30
0.0
 10
78.441868
 20
-9831.639964
 30
0.0
  0
SPLINE
  5
15b
100
AcDbEntity
  8
0
 62
7
100
AcDbSpline
 70
8
 71
3
 72
8
 73
4
 74
0
 40
0
 40
0
 40
0
 40
0
 40
1
 40
1
 40
1
 40
1
 10
75.340306
 20
-9831.538401
 30
0.0
 10
75.394996
 20
-9831.538401
 30
0.0
 10
75.441868
 20
-9831.581371
 30
0.0
 10
75.441868
 20
-9831.639964
 30
0.0
  0
LWPOLYLINE
  5
15c
100
AcDbEntity
  8
0
 62
7
100
AcDbPolyline
 90
2
 70
0
 10
78.340306
 20
-9831.538401
 30
0.0
 10
75.340306
 20
-9831.538401
 30
0.0
  0
SPLINE
  5
15d
100
AcDbEntity
  8
0
 62
7
100
AcDbSpline
 70
8
 71
3
 72
8
 73
4
 74
0
 40
0
 40
0
 40
0
 40
0
 40
1
 40
1
 40
1
 40
1
 10
75.441868
 20
-9825.639964
 30
0.0
 10
75.441868
 20
-9825.694651
 30
0.0
 10
75.398900
 20
-9825.741526
 30
0.0
 10
75.340306
 20
-9825.741526
 30
0.0
  0
LWPOLYLINE
  5
15e
100
AcDbEntity
  8
0
 62
7
100
AcDbPolyline
 90
2
 70
0
 10
75.441868
 20
-9831.639964
 30
0.0
 10
75.441868
 20
-9825.639964
 30
0.0
  0
SPLINE
  5
15f
100
AcDbEntity
  8
0
 62
7
100
AcDbSpline
 70
8
 71
3
 72
8
 73
4
 74
0
 40
0
 40
0
 40
0
 40
0
 40
1
 40
1
 40
1
 40
1
 10
78.340306
 20
-9825.741526
 30
0.0
 10
78.394996
 20
-9825.741526
 30
0.0
 10
78.441868
 20
-9825.698556
 30
0.0
 10
78.441868
 20
-9825.639964
 30
0.0
  0
LWPOLYLINE
  5
160
100
AcDbEntity
  8
0
 62
7
100
AcDbPolyline
 90
2
 70
0
 10
75.340306
 20
-9825.741526
 30
0.0
 10
78.340306
 20
-9825.741526
 30
0.0
  0
SPLINE
  5
161
100
AcDbEntity
  8
0
 62
7
100
AcDbSpline
 70
8
 71
3
 72
8
 73
4
 74
0
 40
0
 40
0
 40
0
 40
0
 40
1
 40
1
 40
1
 40
1
 10
78.441868
 20
-9819.639964
 30
0.0
 10
78.441868
 20
-9819.585274
 30
0.0
 10
78.398898
 20
-9819.538401
 30
0.0
 10
78.340306
 20
-9819.538401
 30
0.0
  0
LWPOLYLINE
  5
162
100
AcDbEntity
  8
0
 62
7
100
AcDbPolyline
 90
2
 70
0
 10
78.441868
 20
-9825.639964
 30
0.0
 10
78.441868
 20
-9819.639964
 30
0.0
  0
SPLINE
  5
163
100
AcDbEntity
  8
0
 62
7
100
AcDbSpline
 70
8
 71
3
 72
8
 73
4
 74
0
 40
0
 40
0
 40
0
 40
0
 40
1
 40
1
 40
1
 40
1
 10
75.340306
 20
-9819.538401
 30
0.0
 10
75.394996
 20
-9819.538401
 30
0.0
 10
75.441868
 20
-9819.581371
 30
0.0
 10
75.441868
 20
-9819.639964
 30
0.0
  0
LWPOLYLINE
  5
164
100
AcDbEntity
  8
0
 62
7
100
AcDbPolyline
 90
2
 70
0
 10
78.340306
 20
-9819.538401
 30
0.0
 10
75.340306
 20
-9819.538401
 30
0.0
  0
SPLINE
  5
165
100
AcDbEntity
  8
0
 62
7
100
AcDbSpline
 70
8
 71
3
 72
8
 73
4
 74
0
 40
0
 40
0
 40
0
 40
0
 40
1
 40
1
 40
1
 40
1
 10
75.441868
 20
-9809.639964
 30
0.0
 10
75.441868
 20
-9809.585274
 30
0.0
 10
75.398898
 20
-9809.538401
 30
0.0
 10
75.340306
 20
-9809.538401
 30
0.0
  0
LWPOLYLINE
  5
166
100
AcDbEntity
  8
0
 62
7
100
AcDbPolyline
 90
3
 70
0
 10
75.441868
 20
-9819.639964
 30
0.0
 10
75.441868
 20
-9812.639964
 30
0.0
 10
75.441868
 20
-9809.639964
 30
0.0
  0
SPLINE
  5
167
100
AcDbEntity
  8
0
 62
7
100
AcDbSpline
 70
8
 71
3
 72
8
 73
4
 74
0
 40
0
 40
0
 40
0
 40
0
 40
1
 40
1
 40
1
 40
1
 10
64.840306
 20
-9809.538401
 30
0.0
 10
64.785616
 20
-9809.538401
 30
0.0
 10
64.738743
 20
-9809.581371
 30
0.0
 10
64.738743
 20
-9809.639964
 30
0.0
  0
LWPOLYLINE
  5
168
100
AcDbEntity
  8
0
 62
7
100
AcDbPolyline
 90
3
 70
0
 10
75.340306
 20
-9809.538401
 30
0.0
 10
75.340306
 20
-9809.538401
 30
0.0
 10
64.840306
 20
-9809.538401
 30
0.0
  0
SPLINE
  5
169
100
AcDbEntity
  8
0
 62
7
100
AcDbSpline
 70
8
 71
3
 72
8
 73
4
 74
0
 40
0
 40
0
 40
0
 40
0
 40
1
 40
1
 40
1
 40
1
 10
64.738744
 20
-9812.639964
 30
0.0
 10
64.738744
 20
-9812.585274
 30
0.0
 10
64.781714
 20
-9812.538401
 30
0.0
 10
64.840306
 20
-9812.538401
 30
0.0
  0
LWPOLYLINE
  5
16a
100
AcDbEntity
  8
0
 62
7
100
AcDbPolyline
 90
2
 70
0
 10
64.738743
 20
-9809.639964
 30
0.0
 10
64.738744
 20
-9812.639964
 30
0.0
  0
SPLINE
  5
16b
100
AcDbEntity
  8
0
 62
7
100
AcDbSpline
 70
8
 71
3
 72
8
 73
4
 74
0
 40
0
 40
0
 40
0
 40
0
 40
1
 40
1
 40
1
 40
1
 10
58.840306
 20
-9812.538401
 30
0.0
 10
58.894996
 20
-9812.538401
 30
0.0
 10
58.941868
 20
-9812.581371
 30
0.0
 10
58.941868
 20
-9812.639964
 30
0.0
  0
LWPOLYLINE
  5
16c
100
AcDbEntity
  8
0
 62
7
100
AcDbPolyline
 90
2
 70
0
 10
64.840306
 20
-9812.538401
 30
0.0
 10
58.840306
 20
-9812.538401
 30
0.0
  0
SPLINE
  5
16d
100
AcDbEntity
  8
0
 62
7
100
AcDbSpline
 70
8
 71
3
 72
8
 73
4
 74
0
 40
0
 40
0
 40
0
 40
0
 40
1
 40
1
 40
1
 40
1
 10
58.941868
 20
-9809.639964
 30
0.0
 10
58.941868
 20
-9809.585274
 30
0.0
 10
58.898898
 20
-9809.538401
 30
0.0
 10
58.840306
 20
-9809.538401
 30
0.0
  0
LWPOLYLINE
  5
16e
100
AcDbEntity
  8
0
 62
7
100
AcDbPolyline
 90
2
 70
0
 10
58.941868
 20
-9812.639964
 30
0.0
 10
58.941868
 20
-9809.639964
 30
0.0
  0
SPLINE
  5
16f
100
AcDbEntity
  8
0
 62
7
100
AcDbSpline
 70
8
 71
3
 72
8
 73
4
 74
0
 40
0
 40
0
 40
0
 40
0
 40
1
 40
1
 40
1
 40
1
 10
48.340306
 20
-9809.538401
 30
0.0
 10
48.285619
 20
-9809.538401
 30
0.0
 10
48.238743
 20
-9809.581371
 30
0.0
 10
48.238743
 20
-9809.639964
 30
0.0
  0
LWPOLYLINE
  5
170
100
AcDbEntity
  8
0
 62
7
100
AcDbPolyline
 90
2
 70
0
 10
58.840306
 20
-9809.538401
 30
0.0
 10
48.340306
 20
-9809.538401
 30
0.0
  0
SPLINE
  5
171
100
AcDbEntity
  8
0
 62
7
100
AcDbSpline
 70
8
 71
3
 72
8
 73
4
 74
0
 40
0
 40
0
 40
0
 40
0
 40
1
 40
1
 40
1
 40
1
 10
48.238743
 20
-9819.639964
 30
0.0
 10
48.238743
 20
-9819.585274
 30
0.0
 10
48.281712
 20
-9819.538401
 30
0.0
 10
48.340306
 20
-9819.538401
 30
0.0
  0
LWPOLYLINE
  5
172
100
AcDbEntity
  8
0
 62
7
100
AcDbPolyline
 90
3
 70
0
 10
48.238743
 20
-9809.639964
 30
0.0
 10
48.238743
 20
-9812.639964
 30
0.0
 10
48.238743
 20
-9819.639964
 30
0.0
  0
SPLINE
  5
173
100
AcDbEntity
  8
0
 62
7
100
AcDbSpline
 70
8
 71
3
 72
8
 73
4
 74
0
 40
0
 40
0
 40
0
 40
0
 40
1
 40
1
 40
1
 40
1
 10
45.340306
 20
-9819.538401
 30
0.0
 10
45.285618
 20
-9819.538401
 30
0.0
 10
45.238743
 20
-9819.581371
 30
0.0
 10
45.238743
 20
-9819.639964
 30
0.0
  0
LWPOLYLINE
  5
174
100
AcDbEntity
  8
0
 62
7
100
AcDbPolyline
 90
2
 70
0
 10
48.340306
 20
-9819.538401
 30
0.0
 10
45.340306
 20
-9819.538401
 30
0.0
  0
SPLINE
  5
175
100
AcDbEntity
  8
0
 62
7
100
AcDbSpline
 70
8
 71
3
 72
8
 73
4
 74
0
 40
0
 40
0
 40
0
 40
0
 40
1
 40
1
 40
1
 40
1
 10
45.238744
 20
-9825.639964
 30
0.0
 10
45.238744
 20
-9825.694651
 30
0.0
 10
45.281712
 20
-9825.741526
 30
0.0
 10
45.340306
 20
-9825.741526
 30
0.0
  0
LWPOLYLINE
  5
176
100
AcDbEntity
  8
0
 62
7
100
AcDbPolyline
 90
2
 70
0
 10
45.238743
 20
-9819.639964
 30
0.0
 10
45.238744
 20
-9825.639964
 30
0.0
  0
SPLINE
  5
177
100
AcDbEntity
  8
0
 62
7
100
AcDbSpline
 70
8
 71
3
 72
8
 73
4
 74
0
 40
0
 40
0
 40
0
 40
0
 40
1
 40
1
 40
1
 40
1
 10
48.340306
 20
-9825.741526
 30
0.0
 10
48.285619
 20
-9825.741526
 30
0.0
 10
48.238744
 20
-9825.698556
 30
0.0
 10
48.238744
 20
-9825.639964
 30
0.0
  0
LWPOLYLINE
  5
178
100
AcDbEntity
  8
0
 62
7
100
AcDbPolyline
 90
2
 70
0
 10
45.340306
 20
-9825.741526
 30
0.0
 10
48.340306
 20
-9825.741526
 30
0.0
  0
SPLINE
  5
179
100
AcDbEntity
  8
0
 62
7
100
AcDbSpline
 70
8
 71
3
 72
8
 73
4
 74
0
 40
0
 40
0
 40
0
 40
0
 40
1
 40
1
 40
1
 40
1
 10
48.238744
 20
-9831.639964
 30
0.0
 10
48.238744
 20
-9831.585274
 30
0.0
 10
48.281712
 20
-9831.538401
 30
0.0
 10
48.340306
 20
-9831.538401
 30
0.0
  0
LWPOLYLINE
  5
17a
100
AcDbEntity
  8
0
 62
7
100
AcDbPolyline
 90
2
 70
0
 10
48.238744
 20
-9825.639964
 30
0.0
 10
48.238744
 20
-9831.639964
 30
0.0
  0
SPLINE
  5
17b
100
AcDbEntity
  8
0
 62
7
100
AcDbSpline
 70
8
 71
3
 72
8
 73
4
 74
0
 40
0
 40
0
 40
0
 40
0
 40
1
 40
1
 40
1
 40
1
 10
45.340306
 20
-9831.538401
 30
0.0
 10
45.285618
 20
-9831.538401
 30
0.0
 10
45.238744
 20
-9831.581371
 30
0.0
 10
45.238744
 20
-9831.639964
 30
0.0
  0
LWPOLYLINE
  5
17c
100
AcDbEntity
  8
0
 62
7
100
AcDbPolyline
 90
2
 70
0
 10
48.340306
 20
-9831.538401
 30
0.0
 10
45.340306
 20
-9831.538401
 30
0.0
  0
SPLINE
  5
17d
100
AcDbEntity
  8
0
 62
7
100
AcDbSpline
 70
8
 71
3
 72
8
 73
4
 74
0
 40
0
 40
0
 40
0
 40
0
 40
1
 40
1
 40
1
 40
1
 10
45.238744
 20
-9837.639964
 30
0.0
 10
45.238744
 20
-9837.694651
 30
0.0
 10
45.281712
 20
-9837.741526
 30
0.0
 10
45.340306
 20
-9837.741526
 30
0.0
  0
LWPOLYLINE
  5
17e
100
AcDbEntity
  8
0
 62
7
100
AcDbPolyline
 90
2
 70
0
 10
45.238744
 20
-9831.639964
 30
0.0
 10
45.238744
 20
-9837.639964
 30
0.0
  0
SPLINE
  5
17f
100
AcDbEntity
  8
0
 62
7
100
AcDbSpline
 70
8
 71
3
 72
8
 73
4
 74
0
 40
0
 40
0
 40
0
 40
0
 40
1
 40
1
 40
1
 40
1
 10
48.340306
 20
-9837.741526
 30
0.0
 10
48.285619
 20
-9837.741526
 30
0.0
 10
48.238744
 20
-9837.698556
 30
0.0
 10
48.238744
 20
-9837.639964
 30
0.0
  0
LWPOLYLINE
  5
180
100
AcDbEntity
  8
0
 62
7
100
AcDbPolyline
 90
2
 70
0
 10
45.340306
 20
-9837.741526
 30
0.0
 10
48.340306
 20
-9837.741526
 30
0.0
  0
SPLINE
  5
181
100
AcDbEntity
  8
0
 62
7
100
AcDbSpline
 70
8
 71
3
 72
8
 73
4
 74
0
 40
0
 40
0
 40
0
 40
0
 40
1
 40
1
 40
1
 40
1
 10
48.238744
 20
-9847.639964
 30
0.0
 10
48.238744
 20
-9847.694651
 30
0.0
 10
48.281712
 20
-9847.741526
 30
0.0
 10
48.340306
 20
-9847.741526
 30
0.0
  0
LWPOLYLINE
  5
182
100
AcDbEntity
  8
0
 62
7
100
AcDbPolyline
 90
3
 70
0
 10
48.238744
 20
-9837.639964
 30
0.0
 10
48.238744
 20
-9844.639964
 30
0.0
 10
48.238744
 20
-9847.639964
 30
0.0
  0
LWPOLYLINE
  5
183
100
AcDbEntity
  8
0
 62
7
100
AcDbPolyline
 90
1
 70
1
 10
48.340306
 20
-9847.741526
 30
0.0
  0
SPLINE
  5
184
100
AcDbEntity
  8
0
 62
7
100
AcDbSpline
 70
8
 71
3
 72
8
 73
4
 74
0
 40
0
 40
0
 40
0
 40
0
 40
1
 40
1
 40
1
 40
1
 10
75.441868
 20
-9797.940764
 30
0.0
 10
75.441868
 20
-9797.995451
 30
0.0
 10
75.398900
 20
-9798.042326
 30
0.0
 10
75.340306
 20
-9798.042326
 30
0.0
  0
LWPOLYLINE
  5
185
100
AcDbEntity
  8
0
 62
7
100
AcDbPolyline
 90
3
 70
0
 10
75.441868
 20
-9807.940764
 30
0.0
 10
75.441868
 20
-9804.940764
 30
0.0
 10
75.441868
 20
-9797.940764
 30
0.0
  0
SPLINE
  5
186
100
AcDbEntity
  8
0
 62
7
100
AcDbSpline
 70
8
 71
3
 72
8
 73
4
 74
0
 40
0
 40
0
 40
0
 40
0
 40
1
 40
1
 40
1
 40
1
 10
78.340306
 20
-9798.042326
 30
0.0
 10
78.394996
 20
-9798.042326
 30
0.0
 10
78.441868
 20
-9797.999356
 30
0.0
 10
78.441868
 20
-9797.940764
 30
0.0
  0
LWPOLYLINE
  5
187
100
AcDbEntity
  8
0
 62
7
100
AcDbPolyline
 90
2
 70
0
 10
75.340306
 20
-9798.042326
 30
0.0
 10
78.340306
 20
-9798.042326
 30
0.0
  0
SPLINE
  5
188
100
AcDbEntity
  8
0
 62
7
100
AcDbSpline
 70
8
 71
3
 72
8
 73
4
 74
0
 40
0
 40
0
 40
0
 40
0
 40
1
 40
1
 40
1
 40
1
 10
78.441868
 20
-9791.940764
 30
0.0
 10
78.441868
 20
-9791.886074
 30
0.0
 10
78.398898
 20
-9791.839201
 30
0.0
 10
78.340306
 20
-9791.839201
 30
0.0
  0
LWPOLYLINE
  5
189
100
AcDbEntity
  8
0
 62
7
100
AcDbPolyline
 90
2
 70
0
 10
78.441868
 20
-9797.940764
 30
0.0
 10
78.441868
 20
-9791.940764
 30
0.0
  0
SPLINE
  5
18a
100
AcDbEntity
  8
0
 62
7
100
AcDbSpline
 70
8
 71
3
 72
8
 73
4
 74
0
 40
0
 40
0
 40
0
 40
0
 40
1
 40
1
 40
1
 40
1
 10
75.340306
 20
-9791.839201
 30
0.0
 10
75.394996
 20
-9791.839201
 30
0.0
 10
75.441868
 20
-9791.882171
 30
0.0
 10
75.441868
 20
-9791.940764
 30
0.0
  0
LWPOLYLINE
  5
18b
100
AcDbEntity
  8
0
 62
7
100
AcDbPolyline
 90
2
 70
0
 10
78.340306
 20
-9791.839201
 30
0.0
 10
75.340306
 20
-9791.839201
 30
0.0
  0
SPLINE
  5
18c
100
AcDbEntity
  8
0
 62
7
100
AcDbSpline
 70
8
 71
3
 72
8
 73
4
 74
0
 40
0
 40
0
 40
0
 40
0
 40
1
 40
1
 40
1
 40
1
 10
75.441868
 20
-9785.940764
 30
0.0
 10
75.441868
 20
-9785.995451
 30
0.0
 10
75.398900
 20
-9786.042326
 30
0.0
 10
75.340306
 20
-9786.042326
 30
0.0
  0
LWPOLYLINE
  5
18d
100
AcDbEntity
  8
0
 62
7
100
AcDbPolyline
 90
2
 70
0
 10
75.441868
 20
-9791.940764
 30
0.0
 10
75.441868
 20
-9785.940764
 30
0.0
  0
SPLINE
  5
18e
100
AcDbEntity
  8
0
 62
7
100
AcDbSpline
 70
8
 71
3
 72
8
 73
4
 74
0
 40
0
 40
0
 40
0
 40
0
 40
1
 40
1
 40
1
 40
1
 10
78.340306
 20
-9786.042326
 30
0.0
 10
78.394996
 20
-9786.042326
 30
0.0
 10
78.441868
 20
-9785.999356
 30
0.0
 10
78.441868
 20
-9785.940764
 30
0.0
  0
LWPOLYLINE
  5
18f
100
AcDbEntity
  8
0
 62
7
100
AcDbPolyline
 90
2
 70
0
 10
75.340306
 20
-9786.042326
 30
0.0
 10
78.340306
 20
-9786.042326
 30
0.0
  0
SPLINE
  5
190
100
AcDbEntity
  8
0
 62
7
100
AcDbSpline
 70
8
 71
3
 72
8
 73
4
 74
0
 40
0
 40
0
 40
0
 40
0
 40
1
 40
1
 40
1
 40
1
 10
78.441868
 20
-9779.940764
 30
0.0
 10
78.441868
 20
-9779.886074
 30
0.0
 10
78.398898
 20
-9779.839201
 30
0.0
 10
78.340306
 20
-9779.839201
 30
0.0
  0
LWPOLYLINE
  5
191
100
AcDbEntity
  8
0
 62
7
100
AcDbPolyline
 90
2
 70
0
 10
78.441868
 20
-9785.940764
 30
0.0
 10
78.441868
 20
-9779.940764
 30
0.0
  0
SPLINE
  5
192
100
AcDbEntity
  8
0
 62
7
100
AcDbSpline
 70
8
 71
3
 72
8
 73
4
 74
0
 40
0
 40
0
 40
0
 40
0
 40
1
 40
1
 40
1
 40
1
 10
75.340306
 20
-9779.839201
 30
0.0
 10
75.394996
 20
-9779.839201
 30
0.0
 10
75.441868
 20
-9779.882171
 30
0.0
 10
75.441868
 20
-9779.940764
 30
0.0
  0
LWPOLYLINE
  5
193
100
AcDbEntity
  8
0
 62
7
100
AcDbPolyline
 90
2
 70
0
 10
78.340306
 20
-9779.839201
 30
0.0
 10
75.340306
 20
-9779.839201
 30
0.0
  0
SPLINE
  5
194
100
AcDbEntity
  8
0
 62
7
100
AcDbSpline
 70
8
 71
3
 72
8
 73
4
 74
0
 40
0
 40
0
 40
0
 40
0
 40
1
 40
1
 40
1
 40
1
 10
75.441868
 20
-9769.940764
 30
0.0
 10
75.441868
 20
-9769.886074
 30
0.0
 10
75.398898
 20
-9769.839201
 30
0.0
 10
75.340306
 20
-9769.839201
 30
0.0
  0
LWPOLYLINE
  5
195
100
AcDbEntity
  8
0
 62
7
100
AcDbPolyline
 90
3
 70
0
 10
75.441868
 20
-9779.940764
 30
0.0
 10
75.441868
 20
-9772.940764
 30
0.0
 10
75.441868
 20
-9769.940764
 30
0.0
  0
SPLINE
  5
196
100
AcDbEntity
  8
0
 62
7
100
AcDbSpline
 70
8
 71
3
 72
8
 73
4
 74
0
 40
0
 40
0
 40
0
 40
0
 40
1
 40
1
 40
1
 40
1
 10
64.840306
 20
-9769.839201
 30
0.0
 10
64.785616
 20
-9769.839201
 30
0.0
 10
64.738743
 20
-9769.882171
 30
0.0
 10
64.738743
 20
-9769.940764
 30
0.0
  0
LWPOLYLINE
  5
197
100
AcDbEntity
  8
0
 62
7
100
AcDbPolyline
 90
3
 70
0
 10
75.340306
 20
-9769.839201
 30
0.0
 10
75.340306
 20
-9769.839201
 30
0.0
 10
64.840306
 20
-9769.839201
 30
0.0
  0
SPLINE
  5
198
100
AcDbEntity
  8
0
 62
7
100
AcDbSpline
 70
8
 71
3
 72
8
 73
4
 74
0
 40
0
 40
0
 40
0
 40
0
 40
1
 40
1
 40
1
 40
1
 10
64.738743
 20
-9772.940764
 30
0.0
 10
64.738743
 20
-9772.886074
 30
0.0
 10
64.781713
 20
-9772.839201
 30
0.0
 10
64.840306
 20
-9772.839201
 30
0.0
  0
LWPOLYLINE
  5
199
100
AcDbEntity
  8
0
 62
7
100
AcDbPolyline
 90
2
 70
0
 10
64.738743
 20
-9769.940764
 30
0.0
 10
64.738743
 20
-9772.940764
 30
0.0
  0
SPLINE
  5
19a
100
AcDbEntity
  8
0
 62
7
100
AcDbSpline
 70
8
 71
3
 72
8
 73
4
 74
0
 40
0
 40
0
 40
0
 40
0
 40
1
 40
1
 40
1
 40
1
 10
58.840306
 20
-9772.839201
 30
0.0
 10
58.894996
 20
-9772.839201
 30
0.0
 10
58.941868
 20
-9772.882171
 30
0.0
 10
58.941868
 20
-9772.940764
 30
0.0
  0
LWPOLYLINE
  5
19b
100
AcDbEntity
  8
0
 62
7
100
AcDbPolyline
 90
2
 70
0
 10
64.840306
 20
-9772.839201
 30
0.0
 10
58.840306
 20
-9772.839201
 30
0.0
  0
SPLINE
  5
19c
100
AcDbEntity
  8
0
 62
7
100
AcDbSpline
 70
8
 71
3
 72
8
 73
4
 74
0
 40
0
 40
0
 40
0
 40
0
 40
1
 40
1
 40
1
 40
1
 10
58.941868
 20
-9769.940764
 30
0.0
 10
58.941868
 20
-9769.886074
 30
0.0
 10
58.898898
 20
-9769.839201
 30
0.0
 10
58.840306
 20
-9769.839201
 30
0.0
  0
LWPOLYLINE
  5
19d
100
AcDbEntity
  8
0
 62
7
100
AcDbPolyline
 90
2
 70
0
 10
58.941868
 20
-9772.940764
 30
0.0
 10
58.941868
 20
-9769.940764
 30
0.0
  0
SPLINE
  5
19e
100
AcDbEntity
  8
0
 62
7
100
AcDbSpline
 70
8
 71
3
 72
8
 73
4
 74
0
 40
0
 40
0
 40
0
 40
0
 40
1
 40
1
 40
1
 40
1
 10
48.340306
 20
-9769.839201
 30
0.0
 10
48.285619
 20
-9769.839201
 30
0.0
 10
48.238743
 20
-9769.882171
 30
0.0
 10
48.238743
 20
-9769.940764
 30
0.0
  0
LWPOLYLINE
  5
19f
100
AcDbEntity
  8
0
 62
7
100
AcDbPolyline
 90
2
 70
0
 10
58.840306
 20
-9769.839201
 30
0.0
 10
48.340306
 20
-9769.839201
 30
0.0
  0
SPLINE
  5
1a0
100
AcDbEntity
  8
0
 62
7
100
AcDbSpline
 70
8
 71
3
 72
8
 73
4
 74
0
 40
0
 40
0
 40
0
 40
0
 40
1
 40
1
 40
1
 40
1
 10
48.238743
 20
-9779.940764
 30
0.0
 10
48.238743
 20
-9779.886074
 30
0.0
 10
48.281712
 20
-9779.839201
 30
0.0
 10
48.340306
 20
-9779.839201
 30
0.0
  0
LWPOLYLINE
  5
1a1
100
AcDbEntity
  8
0
 62
7
100
AcDbPolyline
 90
3
 70
0
 10
48.238743
 20
-9769.940764
 30
0.0
 10
48.238743
 20
-9772.940764
 30
0.0
 10
48.238743
 20
-9779.940764
 30
0.0
  0
SPLINE
  5
1a2
100
AcDbEntity
  8
0
 62
7
100
AcDbSpline
 70
8
 71
3
 72
8
 73
4
 74
0
 40
0
 40
0
 40
0
 40
0
 40
1
 40
1
 40
1
 40
1
 10
45.340306
 20
-9779.839201
 30
0.0
 10
45.285618
 20
-9779.839201
 30
0.0
 10
45.238743
 20
-9779.882171
 30
0.0
 10
45.238743
 20
-9779.940764
 30
0.0
  0
LWPOLYLINE
  5
1a3
100
AcDbEntity
  8
0
 62
7
100
AcDbPolyline
 90
2
 70
0
 10
48.340306
 20
-9779.839201
 30
0.0
 10
45.340306
 20
-9779.839201
 30
0.0
  0
SPLINE
  5
1a4
100
AcDbEntity
  8
0
 62
7
100
AcDbSpline
 70
8
 71
3
 72
8
 73
4
 74
0
 40
0
 40
0
 40
0
 40
0
 40
1
 40
1
 40
1
 40
1
 10
45.238743
 20
-9785.940764
 30
0.0
 10
45.238743
 20
-9785.995451
 30
0.0
 10
45.281712
 20
-9786.042326
 30
0.0
 10
45.340306
 20
-9786.042326
 30
0.0
  0
LWPOLYLINE
  5
1a5
100
AcDbEntity
  8
0
 62
7
100
AcDbPolyline
 90
2
 70
0
 10
45.238743
 20
-9779.940764
 30
0.0
 10
45.238743
 20
-9785.940764
 30
0.0
  0
SPLINE
  5
1a6
100
AcDbEntity
  8
0
 62
7
100
AcDbSpline
 70
8
 71
3
 72
8
 73
4
 74
0
 40
0
 40
0
 40
0
 40
0
 40
1
 40
1
 40
1
 40
1
 10
48.340306
 20
-9786.042326
 30
0.0
 10
48.285619
 20
-9786.042326
 30
0.0
 10
48.238743
 20
-9785.999356
 30
0.0
 10
48.238743
 20
-9785.940764
 30
0.0
  0
LWPOLYLINE
  5
1a7
100
AcDbEntity
  8
0
 62
7
100
AcDbPolyline
 90
2
 70
0
 10
45.340306
 20
-9786.042326
 30
0.0
 10
48.340306
 20
-9786.042326
 30
0.0
  0
SPLINE
  5
1a8
100
AcDbEntity
  8
0
 62
7
100
AcDbSpline
 70
8
 71
3
 72
8
 73
4
 74
0
 40
0
 40
0
 40
0
 40
0
 40
1
 40
1
 40
1
 40
1
 10
48.238743
 20
-9791.940764
 30
0.0
 10
48.238743
 20
-9791.886074
 30
0.0
 10
48.281712
 20
-9791.839201
 30
0.0
 10
48.340306
 20
-9791.839201
 30
0.0
  0
LWPOLYLINE
  5
1a9
100
AcDbEntity
  8
0
 62
7
100
AcDbPolyline
 90
2
 70
0
 10
48.238743
 20
-9785.940764
 30
0.0
 10
48.238743
 20
-9791.940764
 30
0.0
  0
SPLINE
  5
1aa
100
AcDbEntity
  8
0
 62
7
100
AcDbSpline
 70
8
 71
3
 72
8
 73
4
 74
0
 40
0
 40
0
 40
0
 40
0
 40
1
 40
1
 40
1
 40
1
 10
45.340306
 20
-9791.839201
 30
0.0
 10
45.285618
 20
-9791.839201
 30
0.0
 10
45.238743
 20
-9791.882171
 30
0.0
 10
45.238743
 20
-9791.940764
 30
0.0
  0
LWPOLYLINE
  5
1ab
100
AcDbEntity
  8
0
 62
7
100
AcDbPolyline
 90
2
 70
0
 10
48.340306
 20
-9791.839201
 30
0.0
 10
45.340306
 20
-9791.839201
 30
0.0
  0
SPLINE
  5
1ac
100
AcDbEntity
  8
0
 62
7
100
AcDbSpline
 70
8
 71
3
 72
8
 73
4
 74
0
 40
0
 40
0
 40
0
 40
0
 40
1
 40
1
 40
1
 40
1
 10
45.238744
 20
-9797.940764
 30
0.0
 10
45.238744
 20
-9797.995451
 30
0.0
 10
45.281712
 20
-9798.042326
 30
0.0
 10
45.340306
 20
-9798.042326
 30
0.0
  0
LWPOLYLINE
  5
1ad
100
AcDbEntity
  8
0
 62
7
100
AcDbPolyline
 90
2
 70
0
 10
45.238743
 20
-9791.940764
 30
0.0
 10
45.238744
 20
-9797.940764
 30
0.0
  0
SPLINE
  5
1ae
100
AcDbEntity
  8
0
 62
7
100
AcDbSpline
 70
8
 71
3
 72
8
 73
4
 74
0
 40
0
 40
0
 40
0
 40
0
 40
1
 40
1
 40
1
 40
1
 10
48.340306
 20
-9798.042326
 30
0.0
 10
48.285619
 20
-9798.042326
 30
0.0
 10
48.238744
 20
-9797.999356
 30
0.0
 10
48.238744
 20
-9797.940764
 30
0.0
  0
LWPOLYLINE
  5
1af
100
AcDbEntity
  8
0
 62
7
100
AcDbPolyline
 90
2
 70
0
 10
45.340306
 20
-9798.042326
 30
0.0
 10
48.340306
 20
-9798.042326
 30
0.0
  0
LWPOLYLINE
  5
1b0
100
AcDbEntity
  8
0
 62
7
100
AcDbPolyline
 90
3
 70
0
 10
48.238744
 20
-9797.940764
 30
0.0
 10
48.238744
 20
-9804.940764
 30
0.0
 10
48.238744
 20
-9807.940764
 30
0.0
  0
SPLINE
  5
1b1
100
AcDbEntity
  8
0
 62
7
100
AcDbSpline
 70
8
 71
3
 72
8
 73
4
 74
0
 40
0
 40
0
 40
0
 40
0
 40
1
 40
1
 40
1
 40
1
 10
13.141087
 20
-9808.042326
 30
0.0
 10
13.195775
 20
-9808.042326
 30
0.0
 10
13.242649
 20
-9807.999357
 30
0.0
 10
13.242649
 20
-9807.940764
 30
0.0
  0
LWPOLYLINE
  5
1b2
100
AcDbEntity
  8
0
 62
7
100
AcDbPolyline
 90
2
 70
0
 10
3.641087
 20
-9808.042326
 30
0.0
 10
13.141087
 20
-9808.042326
 30
0.0
  0
SPLINE
  5
1b3
100
AcDbEntity
  8
0
 62
7
100
AcDbSpline
 70
8
 71
3
 72
8
 73
4
 74
0
 40
0
 40
0
 40
0
 40
0
 40
1
 40
1
 40
1
 40
1
 10
13.242649
 20
-9804.940764
 30
0.0
 10
13.242649
 20
-9804.995451
 30
0.0
 10
13.199681
 20
-9805.042326
 30
0.0
 10
13.141087
 20
-9805.042326
 30
0.0
  0
LWPOLYLINE
  5
1b4
100
AcDbEntity
  8
0
 62
7
100
AcDbPolyline
 90
2
 70
0
 10
13.242649
 20
-9807.940764
 30
0.0
 10
13.242649
 20
-9804.940764
 30
0.0
  0
SPLINE
  5
1b5
100
AcDbEntity
  8
0
 62
7
100
AcDbSpline
 70
8
 71
3
 72
8
 73
4
 74
0
 40
0
 40
0
 40
0
 40
0
 40
1
 40
1
 40
1
 40
1
 10
19.141087
 20
-9805.042326
 30
0.0
 10
19.086397
 20
-9805.042326
 30
0.0
 10
19.039525
 20
-9804.999357
 30
0.0
 10
19.039525
 20
-9804.940764
 30
0.0
  0
LWPOLYLINE
  5
1b6
100
AcDbEntity
  8
0
 62
7
100
AcDbPolyline
 90
2
 70
0
 10
13.141087
 20
-9805.042326
 30
0.0
 10
19.141087
 20
-9805.042326
 30
0.0
  0
SPLINE
  5
1b7
100
AcDbEntity
  8
0
 62
7
100
AcDbSpline
 70
8
 71
3
 72
8
 73
4
 74
0
 40
0
 40
0
 40
0
 40
0
 40
1
 40
1
 40
1
 40
1
 10
19.039525
 20
-9807.940764
 30
0.0
 10
19.039525
 20
-9807.995451
 30
0.0
 10
19.082493
 20
-9808.042326
 30
0.0
 10
19.141087
 20
-9808.042326
 30
0.0
  0
LWPOLYLINE
  5
1b8
100
AcDbEntity
  8
0
 62
7
100
AcDbPolyline
 90
2
 70
0
 10
19.039525
 20
-9804.940764
 30
0.0
 10
19.039525
 20
-9807.940764
 30
0.0
  0
SPLINE
  5
1b9
100
AcDbEntity
  8
0
 62
7
100
AcDbSpline
 70
8
 71
3
 72
8
 73
4
 74
0
 40
0
 40
0
 40
0
 40
0
 40
1
 40
1
 40
1
 40
1
 10
25.141087
 20
-9808.042326
 30
0.0
 10
25.195777
 20
-9808.042326
 30
0.0
 10
25.242649
 20
-9807.999357
 30
0.0
 10
25.242649
 20
-9807.940764
 30
0.0
  0
LWPOLYLINE
  5
1ba
100
AcDbEntity
  8
0
 62
7
100
AcDbPolyline
 90
2
 70
0
 10
19.141087
 20
-9808.042326
 30
0.0
 10
25.141087
 20
-9808.042326
 30
0.0
  0
SPLINE
  5
1bb
100
AcDbEntity
  8
0
 62
7
100
AcDbSpline
 70
8
 71
3
 72
8
 73
4
 74
0
 40
0
 40
0
 40
0
 40
0
 40
1
 40
1
 40
1
 40
1
 10
25.242649
 20
-9804.940764
 30
0.0
 10
25.242649
 20
-9804.995451
 30
0.0
 10
25.199681
 20
-9805.042326
 30
0.0
 10
25.141087
 20
-9805.042326
 30
0.0
  0
LWPOLYLINE
  5
1bc
100
AcDbEntity
  8
0
 62
7
100
AcDbPolyline
 90
2
 70
0
 10
25.242649
 20
-9807.940764
 30
0.0
 10
25.242649
 20
-9804.940764
 30
0.0
  0
SPLINE
  5
1bd
100
AcDbEntity
  8
0
 62
7
100
AcDbSpline
 70
8
 71
3
 72
8
 73
4
 74
0
 40
0
 40
0
 40
0
 40
0
 40
1
 40
1
 40
1
 40
1
 10
31.141087
 20
-9805.042326
 30
0.0
 10
31.086397
 20
-9805.042326
 30
0.0
 10
31.039525
 20
-9804.999357
 30
0.0
 10
31.039525
 20
-9804.940764
 30
0.0
  0
LWPOLYLINE
  5
1be
100
AcDbEntity
  8
0
 62
7
100
AcDbPolyline
 90
2
 70
0
 10
25.141087
 20
-9805.042326
 30
0.0
 10
31.141087
 20
-9805.042326
 30
0.0
  0
SPLINE
  5
1bf
100
AcDbEntity
  8
0
 62
7
100
AcDbSpline
 70
8
 71
3
 72
8
 73
4
 74
0
 40
0
 40
0
 40
0
 40
0
 40
1
 40
1
 40
1
 40
1
 10
31.039525
 20
-9807.940764
 30
0.0
 10
31.039525
 20
-9807.995451
 30
0.0
 10
31.082493
 20
-9808.042326
 30
0.0
 10
31.141087
 20
-9808.042326
 30
0.0
  0
LWPOLYLINE
  5
1c0
100
AcDbEntity
  8
0
 62
7
100
AcDbPolyline
 90
2
 70
0
 10
31.039525
 20
-9804.940764
 30
0.0
 10
31.039525
 20
-9807.940764
 30
0.0
  0
SPLINE
  5
1c1
100
AcDbEntity
  8
0
 62
7
100
AcDbSpline
 70
8
 71
3
 72
8
 73
4
 74
0
 40
0
 40
0
 40
0
 40
0
 40
1
 40
1
 40
1
 40
1
 10
43.641087
 20
-9808.042326
 30
0.0
 10
43.695777
 20
-9808.042326
 30
0.0
 10
43.742649
 20
-9807.999357
 30
0.0
 10
43.742649
 20
-9807.940764
 30
0.0
  0
LWPOLYLINE
  5
1c2
100
AcDbEntity
  8
0
 62
7
100
AcDbPolyline
 90
3
 70
0
 10
31.141087
 20
-9808.042326
 30
0.0
 10
40.641087
 20
-9808.042326
 30
0.0
 10
43.641087
 20
-9808.042326
 30
0.0
  0
SPLINE
  5
1c3
100
AcDbEntity
  8
0
 62
7
100
AcDbSpline
 70
8
 71
3
 72
8
 73
4
 74
0
 40
0
 40
0
 40
0
 40
0
 40
1
 40
1
 40
1
 40
1
 10
43.742649
 20
-9797.940764
 30
0.0
 10
43.742649
 20
-9797.886074
 30
0.0
 10
43.699679
 20
-9797.839201
 30
0.0
 10
43.641087
 20
-9797.839201
 30
0.0
  0
LWPOLYLINE
  5
1c4
100
AcDbEntity
  8
0
 62
7
100
AcDbPolyline
 90
3
 70
0
 10
43.742649
 20
-9807.940764
 30
0.0
 10
43.742649
 20
-9804.940764
 30
0.0
 10
43.742649
 20
-9797.940764
 30
0.0
  0
SPLINE
  5
1c5
100
AcDbEntity
  8
0
 62
7
100
AcDbSpline
 70
8
 71
3
 72
8
 73
4
 74
0
 40
0
 40
0
 40
0
 40
0
 40
1
 40
1
 40
1
 40
1
 10
40.641087
 20
-9797.839201
 30
0.0
 10
40.695777
 20
-9797.839201
 30
0.0
 10
40.742649
 20
-9797.882171
 30
0.0
 10
40.742649
 20
-9797.940764
 30
0.0
  0
LWPOLYLINE
  5
1c6
100
AcDbEntity
  8
0
 62
7
100
AcDbPolyline
 90
2
 70
0
 10
43.641087
 20
-9797.839201
 30
0.0
 10
40.641087
 20
-9797.839201
 30
0.0
  0
SPLINE
  5
1c7
100
AcDbEntity
  8
0
 62
7
100
AcDbSpline
 70
8
 71
3
 72
8
 73
4
 74
0
 40
0
 40
0
 40
0
 40
0
 40
1
 40
1
 40
1
 40
1
 10
40.742649
 20
-9791.940764
 30
0.0
 10
40.742649
 20
-9791.995451
 30
0.0
 10
40.699681
 20
-9792.042326
 30
0.0
 10
40.641087
 20
-9792.042326
 30
0.0
  0
LWPOLYLINE
  5
1c8
100
AcDbEntity
  8
0
 62
7
100
AcDbPolyline
 90
2
 70
0
 10
40.742649
 20
-9797.940764
 30
0.0
 10
40.742649
 20
-9791.940764
 30
0.0
  0
SPLINE
  5
1c9
100
AcDbEntity
  8
0
 62
7
100
AcDbSpline
 70
8
 71
3
 72
8
 73
4
 74
0
 40
0
 40
0
 40
0
 40
0
 40
1
 40
1
 40
1
 40
1
 10
43.641087
 20
-9792.042326
 30
0.0
 10
43.695777
 20
-9792.042326
 30
0.0
 10
43.742649
 20
-9791.999356
 30
0.0
 10
43.742649
 20
-9791.940764
 30
0.0
  0
LWPOLYLINE
  5
1ca
100
AcDbEntity
  8
0
 62
7
100
AcDbPolyline
 90
2
 70
0
 10
40.641087
 20
-9792.042326
 30
0.0
 10
43.641087
 20
-9792.042326
 30
0.0
  0
SPLINE
  5
1cb
100
AcDbEntity
  8
0
 62
7
100
AcDbSpline
 70
8
 71
3
 72
8
 73
4
 74
0
 40
0
 40
0
 40
0
 40
0
 40
1
 40
1
 40
1
 40
1
 10
43.742649
 20
-9785.940764
 30
0.0
 10
43.742649
 20
-9785.886074
 30
0.0
 10
43.699679
 20
-9785.839201
 30
0.0
 10
43.641087
 20
-9785.839201
 30
0.0
  0
LWPOLYLINE
  5
1cc
100
AcDbEntity
  8
0
 62
7
100
AcDbPolyline
 90
2
 70
0
 10
43.742649
 20
-9791.940764
 30
0.0
 10
43.742649
 20
-9785.940764
 30
0.0
  0
SPLINE
  5
1cd
100
AcDbEntity
  8
0
 62
7
100
AcDbSpline
 70
8
 71
3
 72
8
 73
4
 74
0
 40
0
 40
0
 40
0
 40
0
 40
1
 40
1
 40
1
 40
1
 10
40.641087
 20
-9785.839201
 30
0.0
 10
40.695777
 20
-9785.839201
 30
0.0
 10
40.742649
 20
-9785.882171
 30
0.0
 10
40.742649
 20
-9785.940764
 30
0.0
  0
LWPOLYLINE
  5
1ce
100
AcDbEntity
  8
0
 62
7
100
AcDbPolyline
 90
2
 70
0
 10
43.641087
 20
-9785.839201
 30
0.0
 10
40.641087
 20
-9785.839201
 30
0.0
  0
SPLINE
  5
1cf
100
AcDbEntity
  8
0
 62
7
100
AcDbSpline
 70
8
 71
3
 72
8
 73
4
 74
0
 40
0
 40
0
 40
0
 40
0
 40
1
 40
1
 40
1
 40
1
 10
40.742649
 20
-9779.940764
 30
0.0
 10
40.742649
 20
-9779.995451
 30
0.0
 10
40.699681
 20
-9780.042326
 30
0.0
 10
40.641087
 20
-9780.042326
 30
0.0
  0
LWPOLYLINE
  5
1d0
100
AcDbEntity
  8
0
 62
7
100
AcDbPolyline
 90
2
 70
0
 10
40.742649
 20
-9785.940764
 30
0.0
 10
40.742649
 20
-9779.940764
 30
0.0
  0
SPLINE
  5
1d1
100
AcDbEntity
  8
0
 62
7
100
AcDbSpline
 70
8
 71
3
 72
8
 73
4
 74
0
 40
0
 40
0
 40
0
 40
0
 40
1
 40
1
 40
1
 40
1
 10
43.641087
 20
-9780.042326
 30
0.0
 10
43.695777
 20
-9780.042326
 30
0.0
 10
43.742649
 20
-9779.999356
 30
0.0
 10
43.742649
 20
-9779.940764
 30
0.0
  0
LWPOLYLINE
  5
1d2
100
AcDbEntity
  8
0
 62
7
100
AcDbPolyline
 90
2
 70
0
 10
40.641087
 20
-9780.042326
 30
0.0
 10
43.641087
 20
-9780.042326
 30
0.0
  0
SPLINE
  5
1d3
100
AcDbEntity
  8
0
 62
7
100
AcDbSpline
 70
8
 71
3
 72
8
 73
4
 74
0
 40
0
 40
0
 40
0
 40
0
 40
1
 40
1
 40
1
 40
1
 10
43.742649
 20
-9769.940764
 30
0.0
 10
43.742649
 20
-9769.886074
 30
0.0
 10
43.699679
 20
-9769.839201
 30
0.0
 10
43.641087
 20
-9769.839201
 30
0.0
  0
LWPOLYLINE
  5
1d4
100
AcDbEntity
  8
0
 62
7
100
AcDbPolyline
 90
3
 70
0
 10
43.742649
 20
-9779.940764
 30
0.0
 10
43.742649
 20
-9772.940764
 30
0.0
 10
43.742649
 20
-9769.940764
 30
0.0
  0
SPLINE
  5
1d5
100
AcDbEntity
  8
0
 62
7
100
AcDbSpline
 70
8
 71
3
 72
8
 73
4
 74
0
 40
0
 40
0
 40
0
 40
0
 40
1
 40
1
 40
1
 40
1
 10
31.141087
 20
-9769.839201
 30
0.0
 10
31.086397
 20
-9769.839201
 30
0.0
 10
31.039524
 20
-9769.882171
 30
0.0
 10
31.039524
 20
-9769.940764
 30
0.0
  0
LWPOLYLINE
  5
1d6
100
AcDbEntity
  8
0
 62
7
100
AcDbPolyline
 90
3
 70
0
 10
43.641087
 20
-9769.839201
 30
0.0
 10
40.641087
 20
-9769.839201
 30
0.0
 10
31.141087
 20
-9769.839201
 30
0.0
  0
SPLINE
  5
1d7
100
AcDbEntity
  8
0
 62
7
100
AcDbSpline
 70
8
 71
3
 72
8
 73
4
 74
0
 40
0
 40
0
 40
0
 40
0
 40
1
 40
1
 40
1
 40
1
 10
31.039524
 20
-9772.940764
 30
0.0
 10
31.039524
 20
-9772.886074
 30
0.0
 10
31.082494
 20
-9772.839201
 30
0.0
 10
31.141087
 20
-9772.839201
 30
0.0
  0
LWPOLYLINE
  5
1d8
100
AcDbEntity
  8
0
 62
7
100
AcDbPolyline
 90
2
 70
0
 10
31.039524
 20
-9769.940764
 30
0.0
 10
31.039524
 20
-9772.940764
 30
0.0
  0
SPLINE
  5
1d9
100
AcDbEntity
  8
0
 62
7
100
AcDbSpline
 70
8
 71
3
 72
8
 73
4
 74
0
 40
0
 40
0
 40
0
 40
0
 40
1
 40
1
 40
1
 40
1
 10
25.141087
 20
-9772.839201
 30
0.0
 10
25.195777
 20
-9772.839201
 30
0.0
 10
25.242649
 20
-9772.882171
 30
0.0
 10
25.242649
 20
-9772.940764
 30
0.0
  0
LWPOLYLINE
  5
1da
100
AcDbEntity
  8
0
 62
7
100
AcDbPolyline
 90
2
 70
0
 10
31.141087
 20
-9772.839201
 30
0.0
 10
25.141087
 20
-9772.839201
 30
0.0
  0
SPLINE
  5
1db
100
AcDbEntity
  8
0
 62
7
100
AcDbSpline
 70
8
 71
3
 72
8
 73
4
 74
0
 40
0
 40
0
 40
0
 40
0
 40
1
 40
1
 40
1
 40
1
 10
25.242649
 20
-9769.940764
 30
0.0
 10
25.242649
 20
-9769.886074
 30
0.0
 10
25.199679
 20
-9769.839201
 30
0.0
 10
25.141087
 20
-9769.839201
 30
0.0
  0
LWPOLYLINE
  5
1dc
100
AcDbEntity
  8
0
 62
7
100
AcDbPolyline
 90
2
 70
0
 10
25.242649
 20
-9772.940764
 30
0.0
 10
25.242649
 20
-9769.940764
 30
0.0
  0
SPLINE
  5
1dd
100
AcDbEntity
  8
0
 62
7
100
AcDbSpline
 70
8
 71
3
 72
8
 73
4
 74
0
 40
0
 40
0
 40
0
 40
0
 40
1
 40
1
 40
1
 40
1
 10
19.141087
 20
-9769.839201
 30
0.0
 10
19.086397
 20
-9769.839201
 30
0.0
 10
19.039524
 20
-9769.882171
 30
0.0
 10
19.039524
 20
-9769.940764
 30
0.0
  0
LWPOLYLINE
  5
1de
100
AcDbEntity
  8
0
 62
7
100
AcDbPolyline
 90
2
 70
0
 10
25.141087
 20
-9769.839201
 30
0.0
 10
19.141087
 20
-9769.839201
 30
0.0
  0
SPLINE
  5
1df
100
AcDbEntity
  8
0
 62
7
100
AcDbSpline
 70
8
 71
3
 72
8
 73
4
 74
0
 40
0
 40
0
 40
0
 40
0
 40
1
 40
1
 40
1
 40
1
 10
19.039524
 20
-9772.940764
 30
0.0
 10
19.039524
 20
-9772.886074
 30
0.0
 10
19.082494
 20
-9772.839201
 30
0.0
 10
19.141087
 20
-9772.839201
 30
0.0
  0
LWPOLYLINE
  5
1e0
100
AcDbEntity
  8
0
 62
7
100
AcDbPolyline
 90
2
 70
0
 10
19.039524
 20
-9769.940764
 30
0.0
 10
19.039524
 20
-9772.940764
 30
0.0
  0
SPLINE
  5
1e1
100
AcDbEntity
  8
0
 62
7
100
AcDbSpline
 70
8
 71
3
 72
8
 73
4
 74
0
 40
0
 40
0
 40
0
 40
0
 40
1
 40
1
 40
1
 40
1
 10
13.141087
 20
-9772.839201
 30
0.0
 10
13.195774
 20
-9772.839201
 30
0.0
 10
13.242649
 20
-9772.882171
 30
0.0
 10
13.242649
 20
-9772.940764
 30
0.0
  0
LWPOLYLINE
  5
1e2
100
AcDbEntity
  8
0
 62
7
100
AcDbPolyline
 90
2
 70
0
 10
19.141087
 20
-9772.839201
 30
0.0
 10
13.141087
 20
-9772.839201
 30
0.0
  0
SPLINE
  5
1e3
100
AcDbEntity
  8
0
 62
7
100
AcDbSpline
 70
8
 71
3
 72
8
 73
4
 74
0
 40
0
 40
0
 40
0
 40
0
 40
1
 40
1
 40
1
 40
1
 10
13.242649
 20
-9769.940764
 30
0.0
 10
13.242649
 20
-9769.886074
 30
0.0
 10
13.199681
 20
-9769.839201
 30
0.0
 10
13.141087
 20
-9769.839201
 30
0.0
  0
LWPOLYLINE
  5
1e4
100
AcDbEntity
  8
0
 62
7
100
AcDbPolyline
 90
2
 70
0
 10
13.242649
 20
-9772.940764
 30
0.0
 10
13.242649
 20
-9769.940764
 30
0.0
  0
SPLINE
  5
1e5
100
AcDbEntity
  8
0
 62
7
100
AcDbSpline
 70
8
 71
3
 72
8
 73
4
 74
0
 40
0
 40
0
 40
0
 40
0
 40
1
 40
1
 40
1
 40
1
 10
0.641087
 20
-9769.839201
 30
0.0
 10
0.586399
 20
-9769.839201
 30
0.0
 10
0.539524
 20
-9769.882171
 30
0.0
 10
0.539524
 20
-9769.940764
 30
0.0
  0
LWPOLYLINE
  5
1e6
100
AcDbEntity
  8
0
 62
7
100
AcDbPolyline
 90
3
 70
0
 10
13.141087
 20
-9769.839201
 30
0.0
 10
3.641087
 20
-9769.839201
 30
0.0
 10
0.641087
 20
-9769.839201
 30
0.0
  0
SPLINE
  5
1e7
100
AcDbEntity
  8
0
 62
7
100
AcDbSpline
 70
8
 71
3
 72
8
 73
4
 74
0
 40
0
 40
0
 40
0
 40
0
 40
1
 40
1
 40
1
 40
1
 10
0.539524
 20
-9779.940764
 30
0.0
 10
0.539524
 20
-9779.995451
 30
0.0
 10
0.582493
 20
-9780.042326
 30
0.0
 10
0.641087
 20
-9780.042326
 30
0.0
  0
LWPOLYLINE
  5
1e8
100
AcDbEntity
  8
0
 62
7
100
AcDbPolyline
 90
3
 70
0
 10
0.539524
 20
-9769.940764
 30
0.0
 10
0.539524
 20
-9772.940764
 30
0.0
 10
0.539524
 20
-9779.940764
 30
0.0
  0
SPLINE
  5
1e9
100
AcDbEntity
  8
0
 62
7
100
AcDbSpline
 70
8
 71
3
 72
8
 73
4
 74
0
 40
0
 40
0
 40
0
 40
0
 40
1
 40
1
 40
1
 40
1
 10
3.641087
 20
-9780.042326
 30
0.0
 10
3.586400
 20
-9780.042326
 30
0.0
 10
3.539524
 20
-9779.999356
 30
0.0
 10
3.539524
 20
-9779.940764
 30
0.0
  0
LWPOLYLINE
  5
1ea
100
AcDbEntity
  8
0
 62
7
100
AcDbPolyline
 90
2
 70
0
 10
0.641087
 20
-9780.042326
 30
0.0
 10
3.641087
 20
-9780.042326
 30
0.0
  0
SPLINE
  5
1eb
100
AcDbEntity
  8
0
 62
7
100
AcDbSpline
 70
8
 71
3
 72
8
 73
4
 74
0
 40
0
 40
0
 40
0
 40
0
 40
1
 40
1
 40
1
 40
1
 10
3.539524
 20
-9785.940764
 30
0.0
 10
3.539524
 20
-9785.886074
 30
0.0
 10
3.582493
 20
-9785.839201
 30
0.0
 10
3.641087
 20
-9785.839201
 30
0.0
  0
LWPOLYLINE
  5
1ec
100
AcDbEntity
  8
0
 62
7
100
AcDbPolyline
 90
2
 70
0
 10
3.539524
 20
-9779.940764
 30
0.0
 10
3.539524
 20
-9785.940764
 30
0.0
  0
SPLINE
  5
1ed
100
AcDbEntity
  8
0
 62
7
100
AcDbSpline
 70
8
 71
3
 72
8
 73
4
 74
0
 40
0
 40
0
 40
0
 40
0
 40
1
 40
1
 40
1
 40
1
 10
0.641087
 20
-9785.839201
 30
0.0
 10
0.586399
 20
-9785.839201
 30
0.0
 10
0.539524
 20
-9785.882171
 30
0.0
 10
0.539524
 20
-9785.940764
 30
0.0
  0
LWPOLYLINE
  5
1ee
100
AcDbEntity
  8
0
 62
7
100
AcDbPolyline
 90
2
 70
0
 10
3.641087
 20
-9785.839201
 30
0.0
 10
0.641087
 20
-9785.839201
 30
0.0
  0
SPLINE
  5
1ef
100
AcDbEntity
  8
0
 62
7
100
AcDbSpline
 70
8
 71
3
 72
8
 73
4
 74
0
 40
0
 40
0
 40
0
 40
0
 40
1
 40
1
 40
1
 40
1
 10
0.539524
 20
-9791.940764
 30
0.0
 10
0.539524
 20
-9791.995451
 30
0.0
 10
0.582493
 20
-9792.042326
 30
0.0
 10
0.641087
 20
-9792.042326
 30
0.0
  0
LWPOLYLINE
  5
1f0
100
AcDbEntity
  8
0
 62
7
100
AcDbPolyline
 90
2
 70
0
 10
0.539524
 20
-9785.940764
 30
0.0
 10
0.539524
 20
-9791.940764
 30
0.0
  0
SPLINE
  5
1f1
100
AcDbEntity
  8
0
 62
7
100
AcDbSpline
 70
8
 71
3
 72
8
 73
4
 74
0
 40
0
 40
0
 40
0
 40
0
 40
1
 40
1
 40
1
 40
1
 10
3.641087
 20
-9792.042326
 30
0.0
 10
3.586400
 20
-9792.042326
 30
0.0
 10
3.539524
 20
-9791.999356
 30
0.0
 10
3.539524
 20
-9791.940764
 30
0.0
  0
LWPOLYLINE
  5
1f2
100
AcDbEntity
  8
0
 62
7
100
AcDbPolyline
 90
2
 70
0
 10
0.641087
 20
-9792.042326
 30
0.0
 10
3.641087
 20
-9792.042326
 30
0.0
  0
SPLINE
  5
1f3
100
AcDbEntity
  8
0
 62
7
100
AcDbSpline
 70
8
 71
3
 72
8
 73
4
 74
0
 40
0
 40
0
 40
0
 40
0
 40
1
 40
1
 40
1
 40
1
 10
3.539524
 20
-9797.940764
 30
0.0
 10
3.539524
 20
-9797.886074
 30
0.0
 10
3.582493
 20
-9797.839201
 30
0.0
 10
3.641087
 20
-9797.839201
 30
0.0
  0
LWPOLYLINE
  5
1f4
100
AcDbEntity
  8
0
 62
7
100
AcDbPolyline
 90
2
 70
0
 10
3.539524
 20
-9791.940764
 30
0.0
 10
3.539524
 20
-9797.940764
 30
0.0
  0
SPLINE
  5
1f5
100
AcDbEntity
  8
0
 62
7
100
AcDbSpline
 70
8
 71
3
 72
8
 73
4
 74
0
 40
0
 40
0
 40
0
 40
0
 40
1
 40
1
 40
1
 40
1
 10
0.641087
 20
-9797.839201
 30
0.0
 10
0.586399
 20
-9797.839201
 30
0.0
 10
0.539524
 20
-9797.882171
 30
0.0
 10
0.539524
 20
-9797.940764
 30
0.0
  0
LWPOLYLINE
  5
1f6
100
AcDbEntity
  8
0
 62
7
100
AcDbPolyline
 90
2
 70
0
 10
3.641087
 20
-9797.839201
 30
0.0
 10
0.641087
 20
-9797.839201
 30
0.0
  0
SPLINE
  5
1f7
100
AcDbEntity
  8
0
 62
7
100
AcDbSpline
 70
8
 71
3
 72
8
 73
4
 74
0
 40
0
 40
0
 40
0
 40
0
 40
1
 40
1
 40
1
 40
1
 10
0.539525
 20
-9807.940764
 30
0.0
 10
0.539525
 20
-9807.995451
 30
0.0
 10
0.582493
 20
-9808.042326
 30
0.0
 10
0.641087
 20
-9808.042326
 30
0.0
  0
LWPOLYLINE
  5
1f8
100
AcDbEntity
  8
0
 62
7
100
AcDbPolyline
 90
3
 70
0
 10
0.539524
 20
-9797.940764
 30
0.0
 10
0.539524
 20
-9804.940764
 30
0.0
 10
0.539525
 20
-9807.940764
 30
0.0
  0
LWPOLYLINE
  5
1f9
100
AcDbEntity
  8
0
 62
7
100
AcDbPolyline
 90
2
 70
0
 10
0.641087
 20
-9808.042326
 30
0.0
 10
3.641087
 20
-9808.042326
 30
0.0
  0
SPLINE
  5
1fa
100
AcDbEntity
  8
0
 62
7
100
AcDbSpline
 70
8
 71
3
 72
8
 73
4
 74
0
 40
0
 40
0
 40
0
 40
0
 40
1
 40
1
 40
1
 40
1
 10
13.141088
 20
-9765.343126
 30
0.0
 10
13.086400
 20
-9765.343126
 30
0.0
 10
13.039526
 20
-9765.300157
 30
0.0
 10
13.039526
 20
-9765.241564
 30
0.0
  0
LWPOLYLINE
  5
1fb
100
AcDbEntity
  8
0
 62
7
100
AcDbPolyline
 90
2
 70
0
 10
3.641088
 20
-9765.343126
 30
0.0
 10
13.141088
 20
-9765.343126
 30
0.0
  0
SPLINE
  5
1fc
100
AcDbEntity
  8
0
 62
7
100
AcDbSpline
 70
8
 71
3
 72
8
 73
4
 74
0
 40
0
 40
0
 40
0
 40
0
 40
1
 40
1
 40
1
 40
1
 10
13.039526
 20
-9768.241564
 30
0.0
 10
13.039526
 20
-9768.296251
 30
0.0
 10
13.082494
 20
-9768.343126
 30
0.0
 10
13.141088
 20
-9768.343126
 30
0.0
  0
LWPOLYLINE
  5
1fd
100
AcDbEntity
  8
0
 62
7
100
AcDbPolyline
 90
2
 70
0
 10
13.039526
 20
-9765.241564
 30
0.0
 10
13.039526
 20
-9768.241564
 30
0.0
  0
SPLINE
  5
1fe
100
AcDbEntity
  8
0
 62
7
100
AcDbSpline
 70
8
 71
3
 72
8
 73
4
 74
0
 40
0
 40
0
 40
0
 40
0
 40
1
 40
1
 40
1
 40
1
 10
19.141088
 20
-9768.343126
 30
0.0
 10
19.195778
 20
-9768.343126
 30
0.0
 10
19.242650
 20
-9768.300157
 30
0.0
 10
19.242650
 20
-9768.241564
 30
0.0
  0
LWPOLYLINE
  5
1ff
100
AcDbEntity
  8
0
 62
7
100
AcDbPolyline
 90
2
 70
0
 10
13.141088
 20
-9768.343126
 30
0.0
 10
19.141088
 20
-9768.343126
 30
0.0
  0
SPLINE
  5
200
100
AcDbEntity
  8
0
 62
7
100
AcDbSpline
 70
8
 71
3
 72
8
 73
4
 74
0
 40
0
 40
0
 40
0
 40
0
 40
1
 40
1
 40
1
 40
1
 10
19.242650
 20
-9765.241564
 30
0.0
 10
19.242650
 20
-9765.296251
 30
0.0
 10
19.199682
 20
-9765.343126
 30
0.0
 10
19.141088
 20
-9765.343126
 30
0.0
  0
LWPOLYLINE
  5
201
100
AcDbEntity
  8
0
 62
7
100
AcDbPolyline
 90
2
 70
0
 10
19.242650
 20
-9768.241564
 30
0.0
 10
19.242650
 20
-9765.241564
 30
0.0
  0
SPLINE
  5
202
100
AcDbEntity
  8
0
 62
7
100
AcDbSpline
 70
8
 71
3
 72
8
 73
4
 74
0
 40
0
 40
0
 40
0
 40
0
 40
1
 40
1
 40
1
 40
1
 10
25.141088
 20
-9765.343126
 30
0.0
 10
25.086398
 20
-9765.343126
 30
0.0
 10
25.039526
 20
-9765.300157
 30
0.0
 10
25.039526
 20
-9765.241564
 30
0.0
  0
LWPOLYLINE
  5
203
100
AcDbEntity
  8
0
 62
7
100
AcDbPolyline
 90
2
 70
0
 10
19.141088
 20
-9765.343126
 30
0.0
 10
25.141088
 20
-9765.343126
 30
0.0
  0
SPLINE
  5
204
100
AcDbEntity
  8
0
 62
7
100
AcDbSpline
 70
8
 71
3
 72
8
 73
4
 74
0
 40
0
 40
0
 40
0
 40
0
 40
1
 40
1
 40
1
 40
1
 10
25.039526
 20
-9768.241564
 30
0.0
 10
25.039526
 20
-9768.296251
 30
0.0
 10
25.082494
 20
-9768.343126
 30
0.0
 10
25.141088
 20
-9768.343126
 30
0.0
  0
LWPOLYLINE
  5
205
100
AcDbEntity
  8
0
 62
7
100
AcDbPolyline
 90
2
 70
0
 10
25.039526
 20
-9765.241564
 30
0.0
 10
25.039526
 20
-9768.241564
 30
0.0
  0
SPLINE
  5
206
100
AcDbEntity
  8
0
 62
7
100
AcDbSpline
 70
8
 71
3
 72
8
 73
4
 74
0
 40
0
 40
0
 40
0
 40
0
 40
1
 40
1
 40
1
 40
1
 10
31.141088
 20
-9768.343126
 30
0.0
 10
31.195778
 20
-9768.343126
 30
0.0
 10
31.242650
 20
-9768.300157
 30
0.0
 10
31.242650
 20
-9768.241564
 30
0.0
  0
LWPOLYLINE
  5
207
100
AcDbEntity
  8
0
 62
7
100
AcDbPolyline
 90
2
 70
0
 10
25.141088
 20
-9768.343126
 30
0.0
 10
31.141088
 20
-9768.343126
 30
0.0
  0
SPLINE
  5
208
100
AcDbEntity
  8
0
 62
7
100
AcDbSpline
 70
8
 71
3
 72
8
 73
4
 74
0
 40
0
 40
0
 40
0
 40
0
 40
1
 40
1
 40
1
 40
1
 10
31.242650
 20
-9765.241564
 30
0.0
 10
31.242650
 20
-9765.296251
 30
0.0
 10
31.199682
 20
-9765.343126
 30
0.0
 10
31.141088
 20
-9765.343126
 30
0.0
  0
LWPOLYLINE
  5
209
100
AcDbEntity
  8
0
 62
7
100
AcDbPolyline
 90
2
 70
0
 10
31.242650
 20
-9768.241564
 30
0.0
 10
31.242650
 20
-9765.241564
 30
0.0
  0
SPLINE
  5
20a
100
AcDbEntity
  8
0
 62
7
100
AcDbSpline
 70
8
 71
3
 72
8
 73
4
 74
0
 40
0
 40
0
 40
0
 40
0
 40
1
 40
1
 40
1
 40
1
 10
40.641088
 20
-9765.343126
 30
0.0
 10
40.695778
 20
-9765.343126
 30
0.0
 10
40.742650
 20
-9765.300157
 30
0.0
 10
40.742650
 20
-9765.241564
 30
0.0
  0
LWPOLYLINE
  5
20b
100
AcDbEntity
  8
0
 62
7
100
AcDbPolyline
 90
2
 70
0
 10
31.141088
 20
-9765.343126
 30
0.0
 10
40.641088
 20
-9765.343126
 30
0.0
  0
SPLINE
  5
20c
100
AcDbEntity
  8
0
 62
7
100
AcDbSpline
 70
8
 71
3
 72
8
 73
4
 74
0
 40
0
 40
0
 40
0
 40
0
 40
1
 40
1
 40
1
 40
1
 10
40.742650
 20
-9738.241564
 30
0.0
 10
40.742650
 20
-9738.186874
 30
0.0
 10
40.699680
 20
-9738.140001
 30
0.0
 10
40.641088
 20
-9738.140001
 30
0.0
  0
LWPOLYLINE
  5
20d
100
AcDbEntity
  8
0
 62
7
100
AcDbPolyline
 90
3
 70
0
 10
40.742650
 20
-9765.241564
 30
0.0
 10
40.742650
 20
-9765.241564
 30
0.0
 10
40.742650
 20
-9738.241564
 30
0.0
  0
SPLINE
  5
20e
100
AcDbEntity
  8
0
 62
7
100
AcDbSpline
 70
8
 71
3
 72
8
 73
4
 74
0
 40
0
 40
0
 40
0
 40
0
 40
1
 40
1
 40
1
 40
1
 10
31.141088
 20
-9738.140001
 30
0.0
 10
31.195778
 20
-9738.140001
 30
0.0
 10
31.242650
 20
-9738.182971
 30
0.0
 10
31.242650
 20
-9738.241564
 30
0.0
  0
LWPOLYLINE
  5
20f
100
AcDbEntity
  8
0
 62
7
100
AcDbPolyline
 90
3
 70
0
 10
40.641088
 20
-9738.140001
 30
0.0
 10
40.641088
 20
-9738.140001
 30
0.0
 10
31.141088
 20
-9738.140001
 30
0.0
  0
SPLINE
  5
210
100
AcDbEntity
  8
0
 62
7
100
AcDbSpline
 70
8
 71
3
 72
8
 73
4
 74
0
 40
0
 40
0
 40
0
 40
0
 40
1
 40
1
 40
1
 40
1
 10
31.242650
 20
-9735.241564
 30
0.0
 10
31.242650
 20
-9735.186874
 30
0.0
 10
31.199680
 20
-9735.140001
 30
0.0
 10
31.141088
 20
-9735.140001
 30
0.0
  0
LWPOLYLINE
  5
211
100
AcDbEntity
  8
0
 62
7
100
AcDbPolyline
 90
2
 70
0
 10
31.242650
 20
-9738.241564
 30
0.0
 10
31.242650
 20
-9735.241564
 30
0.0
  0
SPLINE
  5
212
100
AcDbEntity
  8
0
 62
7
100
AcDbSpline
 70
8
 71
3
 72
8
 73
4
 74
0
 40
0
 40
0
 40
0
 40
0
 40
1
 40
1
 40
1
 40
1
 10
25.141088
 20
-9735.140001
 30
0.0
 10
25.086398
 20
-9735.140001
 30
0.0
 10
25.039525
 20
-9735.182971
 30
0.0
 10
25.039525
 20
-9735.241564
 30
0.0
  0
LWPOLYLINE
  5
213
100
AcDbEntity
  8
0
 62
7
100
AcDbPolyline
 90
2
 70
0
 10
31.141088
 20
-9735.140001
 30
0.0
 10
25.141088
 20
-9735.140001
 30
0.0
  0
SPLINE
  5
214
100
AcDbEntity
  8
0
 62
7
100
AcDbSpline
 70
8
 71
3
 72
8
 73
4
 74
0
 40
0
 40
0
 40
0
 40
0
 40
1
 40
1
 40
1
 40
1
 10
25.039525
 20
-9738.241564
 30
0.0
 10
25.039525
 20
-9738.186874
 30
0.0
 10
25.082495
 20
-9738.140001
 30
0.0
 10
25.141088
 20
-9738.140001
 30
0.0
  0
LWPOLYLINE
  5
215
100
AcDbEntity
  8
0
 62
7
100
AcDbPolyline
 90
2
 70
0
 10
25.039525
 20
-9735.241564
 30
0.0
 10
25.039525
 20
-9738.241564
 30
0.0
  0
SPLINE
  5
216
100
AcDbEntity
  8
0
 62
7
100
AcDbSpline
 70
8
 71
3
 72
8
 73
4
 74
0
 40
0
 40
0
 40
0
 40
0
 40
1
 40
1
 40
1
 40
1
 10
19.141088
 20
-9738.140001
 30
0.0
 10
19.195778
 20
-9738.140001
 30
0.0
 10
19.242650
 20
-9738.182971
 30
0.0
 10
19.242650
 20
-9738.241564
 30
0.0
  0
LWPOLYLINE
  5
217
100
AcDbEntity
  8
0
 62
7
100
AcDbPolyline
 90
2
 70
0
 10
25.141088
 20
-9738.140001
 30
0.0
 10
19.141088
 20
-9738.140001
 30
0.0
  0
SPLINE
  5
218
100
AcDbEntity
  8
0
 62
7
100
AcDbSpline
 70
8
 71
3
 72
8
 73
4
 74
0
 40
0
 40
0
 40
0
 40
0
 40
1
 40
1
 40
1
 40
1
 10
19.242650
 20
-9735.241564
 30
0.0
 10
19.242650
 20
-9735.186874
 30
0.0
 10
19.199680
 20
-9735.140001
 30
0.0
 10
19.141088
 20
-9735.140001
 30
0.0
  0
LWPOLYLINE
  5
219
100
AcDbEntity
  8
0
 62
7
100
AcDbPolyline
 90
2
 70
0
 10
19.242650
 20
-9738.241564
 30
0.0
 10
19.242650
 20
-9735.241564
 30
0.0
  0
SPLINE
  5
21a
100
AcDbEntity
  8
0
 62
7
100
AcDbSpline
 70
8
 71
3
 72
8
 73
4
 74
0
 40
0
 40
0
 40
0
 40
0
 40
1
 40
1
 40
1
 40
1
 10
13.141088
 20
-9735.140001
 30
0.0
 10
13.086400
 20
-9735.140001
 30
0.0
 10
13.039525
 20
-9735.182971
 30
0.0
 10
13.039525
 20
-9735.241564
 30
0.0
  0
LWPOLYLINE
  5
21b
100
AcDbEntity
  8
0
 62
7
100
AcDbPolyline
 90
2
 70
0
 10
19.141088
 20
-9735.140001
 30
0.0
 10
13.141088
 20
-9735.140001
 30
0.0
  0
SPLINE
  5
21c
100
AcDbEntity
  8
0
 62
7
100
AcDbSpline
 70
8
 71
3
 72
8
 73
4
 74
0
 40
0
 40
0
 40
0
 40
0
 40
1
 40
1
 40
1
 40
1
 10
13.039525
 20
-9738.241564
 30
0.0
 10
13.039525
 20
-9738.186874
 30
0.0
 10
13.082494
 20
-9738.140001
 30
0.0
 10
13.141088
 20
-9738.140001
 30
0.0
  0
LWPOLYLINE
  5
21d
100
AcDbEntity
  8
0
 62
7
100
AcDbPolyline
 90
2
 70
0
 10
13.039525
 20
-9735.241564
 30
0.0
 10
13.039525
 20
-9738.241564
 30
0.0
  0
SPLINE
  5
21e
100
AcDbEntity
  8
0
 62
7
100
AcDbSpline
 70
8
 71
3
 72
8
 73
4
 74
0
 40
0
 40
0
 40
0
 40
0
 40
1
 40
1
 40
1
 40
1
 10
3.641088
 20
-9738.140001
 30
0.0
 10
3.586401
 20
-9738.140001
 30
0.0
 10
3.539525
 20
-9738.182971
 30
0.0
 10
3.539525
 20
-9738.241564
 30
0.0
  0
LWPOLYLINE
  5
21f
100
AcDbEntity
  8
0
 62
7
100
AcDbPolyline
 90
2
 70
0
 10
13.141088
 20
-9738.140001
 30
0.0
 10
3.641088
 20
-9738.140001
 30
0.0
  0
SPLINE
  5
220
100
AcDbEntity
  8
0
 62
7
100
AcDbSpline
 70
8
 71
3
 72
8
 73
4
 74
0
 40
0
 40
0
 40
0
 40
0
 40
1
 40
1
 40
1
 40
1
 10
3.539525
 20
-9748.741564
 30
0.0
 10
3.539525
 20
-9748.686874
 30
0.0
 10
3.582494
 20
-9748.640001
 30
0.0
 10
3.641088
 20
-9748.640001
 30
0.0
  0
LWPOLYLINE
  5
221
100
AcDbEntity
  8
0
 62
7
100
AcDbPolyline
 90
3
 70
0
 10
3.539525
 20
-9738.241564
 30
0.0
 10
3.539525
 20
-9738.241564
 30
0.0
 10
3.539525
 20
-9748.741564
 30
0.0
  0
SPLINE
  5
222
100
AcDbEntity
  8
0
 62
7
100
AcDbSpline
 70
8
 71
3
 72
8
 73
4
 74
0
 40
0
 40
0
 40
0
 40
0
 40
1
 40
1
 40
1
 40
1
 10
0.641088
 20
-9748.640001
 30
0.0
 10
0.586400
 20
-9748.640001
 30
0.0
 10
0.539525
 20
-9748.682971
 30
0.0
 10
0.539525
 20
-9748.741564
 30
0.0
  0
LWPOLYLINE
  5
223
100
AcDbEntity
  8
0
 62
7
100
AcDbPolyline
 90
2
 70
0
 10
3.641088
 20
-9748.640001
 30
0.0
 10
0.641088
 20
-9748.640001
 30
0.0
  0
SPLINE
  5
224
100
AcDbEntity
  8
0
 62
7
100
AcDbSpline
 70
8
 71
3
 72
8
 73
4
 74
0
 40
0
 40
0
 40
0
 40
0
 40
1
 40
1
 40
1
 40
1
 10
0.539525
 20
-9754.741564
 30
0.0
 10
0.539525
 20
-9754.796251
 30
0.0
 10
0.582494
 20
-9754.843126
 30
0.0
 10
0.641088
 20
-9754.843126
 30
0.0
  0
LWPOLYLINE
  5
225
100
AcDbEntity
  8
0
 62
7
100
AcDbPolyline
 90
2
 70
0
 10
0.539525
 20
-9748.741564
 30
0.0
 10
0.539525
 20
-9754.741564
 30
0.0
  0
SPLINE
  5
226
100
AcDbEntity
  8
0
 62
7
100
AcDbSpline
 70
8
 71
3
 72
8
 73
4
 74
0
 40
0
 40
0
 40
0
 40
0
 40
1
 40
1
 40
1
 40
1
 10
3.641088
 20
-9754.843126
 30
0.0
 10
3.586401
 20
-9754.843126
 30
0.0
 10
3.539525
 20
-9754.800156
 30
0.0
 10
3.539525
 20
-9754.741564
 30
0.0
  0
LWPOLYLINE
  5
227
100
AcDbEntity
  8
0
 62
7
100
AcDbPolyline
 90
2
 70
0
 10
0.641088
 20
-9754.843126
 30
0.0
 10
3.641088
 20
-9754.843126
 30
0.0
  0
SPLINE
  5
228
100
AcDbEntity
  8
0
 62
7
100
AcDbSpline
 70
8
 71
3
 72
8
 73
4
 74
0
 40
0
 40
0
 40
0
 40
0
 40
1
 40
1
 40
1
 40
1
 10
3.539526
 20
-9765.241564
 30
0.0
 10
3.539526
 20
-9765.296251
 30
0.0
 10
3.582494
 20
-9765.343126
 30
0.0
 10
3.641088
 20
-9765.343126
 30
0.0
  0
LWPOLYLINE
  5
229
100
AcDbEntity
  8
0
 62
7
100
AcDbPolyline
 90
2
 70
0
 10
3.539525
 20
-9754.741564
 30
0.0
 10
3.539526
 20
-9765.241564
 30
0.0
  0
LWPOLYLINE
  5
22a
100
AcDbEntity
  8
0
 62
7
100
AcDbPolyline
 90
1
 70
1
 10
3.641088
 20
-9765.343126
 30
0.0
  0
SPLINE
  5
22b
100
AcDbEntity
  8
0
 62
7
100
AcDbSpline
 70
8
 71
3
 72
8
 73
4
 74
0
 40
0
 40
0
 40
0
 40
0
 40
1
 40
1
 40
1
 40
1
 10
57.840306
 20
-9765.343126
 30
0.0
 10
57.785618
 20
-9765.343126
 30
0.0
 10
57.738744
 20
-9765.300157
 30
0.0
 10
57.738744
 20
-9765.241564
 30
0.0
  0
LWPOLYLINE
  5
22c
100
AcDbEntity
  8
0
 62
7
100
AcDbPolyline
 90
2
 70
0
 10
48.340306
 20
-9765.343126
 30
0.0
 10
57.840306
 20
-9765.343126
 30
0.0
  0
SPLINE
  5
22d
100
AcDbEntity
  8
0
 62
7
100
AcDbSpline
 70
8
 71
3
 72
8
 73
4
 74
0
 40
0
 40
0
 40
0
 40
0
 40
1
 40
1
 40
1
 40
1
 10
57.738744
 20
-9768.241564
 30
0.0
 10
57.738744
 20
-9768.296251
 30
0.0
 10
57.781712
 20
-9768.343126
 30
0.0
 10
57.840306
 20
-9768.343126
 30
0.0
  0
LWPOLYLINE
  5
22e
100
AcDbEntity
  8
0
 62
7
100
AcDbPolyline
 90
2
 70
0
 10
57.738744
 20
-9765.241564
 30
0.0
 10
57.738744
 20
-9768.241564
 30
0.0
  0
SPLINE
  5
22f
100
AcDbEntity
  8
0
 62
7
100
AcDbSpline
 70
8
 71
3
 72
8
 73
4
 74
0
 40
0
 40
0
 40
0
 40
0
 40
1
 40
1
 40
1
 40
1
 10
63.840306
 20
-9768.343126
 30
0.0
 10
63.894996
 20
-9768.343126
 30
0.0
 10
63.941869
 20
-9768.300157
 30
0.0
 10
63.941869
 20
-9768.241564
 30
0.0
  0
LWPOLYLINE
  5
230
100
AcDbEntity
  8
0
 62
7
100
AcDbPolyline
 90
2
 70
0
 10
57.840306
 20
-9768.343126
 30
0.0
 10
63.840306
 20
-9768.343126
 30
0.0
  0
SPLINE
  5
231
100
AcDbEntity
  8
0
 62
7
100
AcDbSpline
 70
8
 71
3
 72
8
 73
4
 74
0
 40
0
 40
0
 40
0
 40
0
 40
1
 40
1
 40
1
 40
1
 10
63.941869
 20
-9765.241564
 30
0.0
 10
63.941869
 20
-9765.296251
 30
0.0
 10
63.898900
 20
-9765.343126
 30
0.0
 10
63.840306
 20
-9765.343126
 30
0.0
  0
LWPOLYLINE
  5
232
100
AcDbEntity
  8
0
 62
7
100
AcDbPolyline
 90
2
 70
0
 10
63.941869
 20
-9768.241564
 30
0.0
 10
63.941869
 20
-9765.241564
 30
0.0
  0
SPLINE
  5
233
100
AcDbEntity
  8
0
 62
7
100
AcDbSpline
 70
8
 71
3
 72
8
 73
4
 74
0
 40
0
 40
0
 40
0
 40
0
 40
1
 40
1
 40
1
 40
1
 10
69.840306
 20
-9765.343126
 30
0.0
 10
69.785616
 20
-9765.343126
 30
0.0
 10
69.738744
 20
-9765.300157
 30
0.0
 10
69.738744
 20
-9765.241564
 30
0.0
  0
LWPOLYLINE
  5
234
100
AcDbEntity
  8
0
 62
7
100
AcDbPolyline
 90
2
 70
0
 10
63.840306
 20
-9765.343126
 30
0.0
 10
69.840306
 20
-9765.343126
 30
0.0
  0
SPLINE
  5
235
100
AcDbEntity
  8
0
 62
7
100
AcDbSpline
 70
8
 71
3
 72
8
 73
4
 74
0
 40
0
 40
0
 40
0
 40
0
 40
1
 40
1
 40
1
 40
1
 10
69.738744
 20
-9768.241564
 30
0.0
 10
69.738744
 20
-9768.296251
 30
0.0
 10
69.781712
 20
-9768.343126
 30
0.0
 10
69.840306
 20
-9768.343126
 30
0.0
  0
LWPOLYLINE
  5
236
100
AcDbEntity
  8
0
 62
7
100
AcDbPolyline
 90
2
 70
0
 10
69.738744
 20
-9765.241564
 30
0.0
 10
69.738744
 20
-9768.241564
 30
0.0
  0
SPLINE
  5
237
100
AcDbEntity
  8
0
 62
7
100
AcDbSpline
 70
8
 71
3
 72
8
 73
4
 74
0
 40
0
 40
0
 40
0
 40
0
 40
1
 40
1
 40
1
 40
1
 10
75.840306
 20
-9768.343126
 30
0.0
 10
75.894996
 20
-9768.343126
 30
0.0
 10
75.941869
 20
-9768.300157
 30
0.0
 10
75.941869
 20
-9768.241564
 30
0.0
  0
LWPOLYLINE
  5
238
100
AcDbEntity
  8
0
 62
7
100
AcDbPolyline
 90
2
 70
0
 10
69.840306
 20
-9768.343126
 30
0.0
 10
75.840306
 20
-9768.343126
 30
0.0
  0
SPLINE
  5
239
100
AcDbEntity
  8
0
 62
7
100
AcDbSpline
 70
8
 71
3
 72
8
 73
4
 74
0
 40
0
 40
0
 40
0
 40
0
 40
1
 40
1
 40
1
 40
1
 10
75.941869
 20
-9765.241564
 30
0.0
 10
75.941869
 20
-9765.296251
 30
0.0
 10
75.898900
 20
-9765.343126
 30
0.0
 10
75.840306
 20
-9765.343126
 30
0.0
  0
LWPOLYLINE
  5
23a
100
AcDbEntity
  8
0
 62
7
100
AcDbPolyline
 90
2
 70
0
 10
75.941869
 20
-9768.241564
 30
0.0
 10
75.941869
 20
-9765.241564
 30
0.0
  0
SPLINE
  5
23b
100
AcDbEntity
  8
0
 62
7
100
AcDbSpline
 70
8
 71
3
 72
8
 73
4
 74
0
 40
0
 40
0
 40
0
 40
0
 40
1
 40
1
 40
1
 40
1
 10
85.340306
 20
-9765.343126
 30
0.0
 10
85.394996
 20
-9765.343126
 30
0.0
 10
85.441869
 20
-9765.300157
 30
0.0
 10
85.441869
 20
-9765.241564
 30
0.0
  0
LWPOLYLINE
  5
23c
100
AcDbEntity
  8
0
 62
7
100
AcDbPolyline
 90
2
 70
0
 10
75.840306
 20
-9765.343126
 30
0.0
 10
85.340306
 20
-9765.343126
 30
0.0
  0
SPLINE
  5
23d
100
AcDbEntity
  8
0
 62
7
100
AcDbSpline
 70
8
 71
3
 72
8
 73
4
 74
0
 40
0
 40
0
 40
0
 40
0
 40
1
 40
1
 40
1
 40
1
 10
85.441869
 20
-9754.741564
 30
0.0
 10
85.441869
 20
-9754.796251
 30
0.0
 10
85.398900
 20
-9754.843126
 30
0.0
 10
85.340306
 20
-9754.843126
 30
0.0
  0
LWPOLYLINE
  5
23e
100
AcDbEntity
  8
0
 62
7
100
AcDbPolyline
 90
3
 70
0
 10
85.441869
 20
-9765.241564
 30
0.0
 10
85.441869
 20
-9765.241564
 30
0.0
 10
85.441869
 20
-9754.741564
 30
0.0
  0
SPLINE
  5
23f
100
AcDbEntity
  8
0
 62
7
100
AcDbSpline
 70
8
 71
3
 72
8
 73
4
 74
0
 40
0
 40
0
 40
0
 40
0
 40
1
 40
1
 40
1
 40
1
 10
88.340306
 20
-9754.843126
 30
0.0
 10
88.394996
 20
-9754.843126
 30
0.0
 10
88.441869
 20
-9754.800156
 30
0.0
 10
88.441869
 20
-9754.741564
 30
0.0
  0
LWPOLYLINE
  5
240
100
AcDbEntity
  8
0
 62
7
100
AcDbPolyline
 90
2
 70
0
 10
85.340306
 20
-9754.843126
 30
0.0
 10
88.340306
 20
-9754.843126
 30
0.0
  0
SPLINE
  5
241
100
AcDbEntity
  8
0
 62
7
100
AcDbSpline
 70
8
 71
3
 72
8
 73
4
 74
0
 40
0
 40
0
 40
0
 40
0
 40
1
 40
1
 40
1
 40
1
 10
88.441868
 20
-9748.741564
 30
0.0
 10
88.441868
 20
-9748.686874
 30
0.0
 10
88.398898
 20
-9748.640001
 30
0.0
 10
88.340306
 20
-9748.640001
 30
0.0
  0
LWPOLYLINE
  5
242
100
AcDbEntity
  8
0
 62
7
100
AcDbPolyline
 90
2
 70
0
 10
88.441869
 20
-9754.741564
 30
0.0
 10
88.441868
 20
-9748.741564
 30
0.0
  0
SPLINE
  5
243
100
AcDbEntity
  8
0
 62
7
100
AcDbSpline
 70
8
 71
3
 72
8
 73
4
 74
0
 40
0
 40
0
 40
0
 40
0
 40
1
 40
1
 40
1
 40
1
 10
85.340306
 20
-9748.640001
 30
0.0
 10
85.394996
 20
-9748.640001
 30
0.0
 10
85.441868
 20
-9748.682971
 30
0.0
 10
85.441868
 20
-9748.741564
 30
0.0
  0
LWPOLYLINE
  5
244
100
AcDbEntity
  8
0
 62
7
100
AcDbPolyline
 90
2
 70
0
 10
88.340306
 20
-9748.640001
 30
0.0
 10
85.340306
 20
-9748.640001
 30
0.0
  0
SPLINE
  5
245
100
AcDbEntity
  8
0
 62
7
100
AcDbSpline
 70
8
 71
3
 72
8
 73
4
 74
0
 40
0
 40
0
 40
0
 40
0
 40
1
 40
1
 40
1
 40
1
 10
85.441868
 20
-9738.241564
 30
0.0
 10
85.441868
 20
-9738.186874
 30
0.0
 10
85.398898
 20
-9738.140001
 30
0.0
 10
85.340306
 20
-9738.140001
 30
0.0
  0
LWPOLYLINE
  5
246
100
AcDbEntity
  8
0
 62
7
100
AcDbPolyline
 90
2
 70
0
 10
85.441868
 20
-9748.741564
 30
0.0
 10
85.441868
 20
-9738.241564
 30
0.0
  0
SPLINE
  5
247
100
AcDbEntity
  8
0
 62
7
100
AcDbSpline
 70
8
 71
3
 72
8
 73
4
 74
0
 40
0
 40
0
 40
0
 40
0
 40
1
 40
1
 40
1
 40
1
 10
75.840306
 20
-9738.140001
 30
0.0
 10
75.894996
 20
-9738.140001
 30
0.0
 10
75.941868
 20
-9738.182971
 30
0.0
 10
75.941868
 20
-9738.241564
 30
0.0
  0
LWPOLYLINE
  5
248
100
AcDbEntity
  8
0
 62
7
100
AcDbPolyline
 90
3
 70
0
 10
85.340306
 20
-9738.140001
 30
0.0
 10
85.340306
 20
-9738.140001
 30
0.0
 10
75.840306
 20
-9738.140001
 30
0.0
  0
SPLINE
  5
249
100
AcDbEntity
  8
0
 62
7
100
AcDbSpline
 70
8
 71
3
 72
8
 73
4
 74
0
 40
0
 40
0
 40
0
 40
0
 40
1
 40
1
 40
1
 40
1
 10
75.941868
 20
-9735.241564
 30
0.0
 10
75.941868
 20
-9735.186874
 30
0.0
 10
75.898898
 20
-9735.140001
 30
0.0
 10
75.840306
 20
-9735.140001
 30
0.0
  0
LWPOLYLINE
  5
24a
100
AcDbEntity
  8
0
 62
7
100
AcDbPolyline
 90
2
 70
0
 10
75.941868
 20
-9738.241564
 30
0.0
 10
75.941868
 20
-9735.241564
 30
0.0
  0
SPLINE
  5
24b
100
AcDbEntity
  8
0
 62
7
100
AcDbSpline
 70
8
 71
3
 72
8
 73
4
 74
0
 40
0
 40
0
 40
0
 40
0
 40
1
 40
1
 40
1
 40
1
 10
69.840306
 20
-9735.140001
 30
0.0
 10
69.785616
 20
-9735.140001
 30
0.0
 10
69.738743
 20
-9735.182971
 30
0.0
 10
69.738743
 20
-9735.241564
 30
0.0
  0
LWPOLYLINE
  5
24c
100
AcDbEntity
  8
0
 62
7
100
AcDbPolyline
 90
2
 70
0
 10
75.840306
 20
-9735.140001
 30
0.0
 10
69.840306
 20
-9735.140001
 30
0.0
  0
SPLINE
  5
24d
100
AcDbEntity
  8
0
 62
7
100
AcDbSpline
 70
8
 71
3
 72
8
 73
4
 74
0
 40
0
 40
0
 40
0
 40
0
 40
1
 40
1
 40
1
 40
1
 10
69.738743
 20
-9738.241564
 30
0.0
 10
69.738743
 20
-9738.186874
 30
0.0
 10
69.781713
 20
-9738.140001
 30
0.0
 10
69.840306
 20
-9738.140001
 30
0.0
  0
LWPOLYLINE
  5
24e
100
AcDbEntity
  8
0
 62
7
100
AcDbPolyline
 90
2
 70
0
 10
69.738743
 20
-9735.241564
 30
0.0
 10
69.738743
 20
-9738.241564
 30
0.0
  0
SPLINE
  5
24f
100
AcDbEntity
  8
0
 62
7
100
AcDbSpline
 70
8
 71
3
 72
8
 73
4
 74
0
 40
0
 40
0
 40
0
 40
0
 40
1
 40
1
 40
1
 40
1
 10
63.840306
 20
-9738.140001
 30
0.0
 10
63.894996
 20
-9738.140001
 30
0.0
 10
63.941868
 20
-9738.182971
 30
0.0
 10
63.941868
 20
-9738.241564
 30
0.0
  0
LWPOLYLINE
  5
250
100
AcDbEntity
  8
0
 62
7
100
AcDbPolyline
 90
2
 70
0
 10
69.840306
 20
-9738.140001
 30
0.0
 10
63.840306
 20
-9738.140001
 30
0.0
  0
SPLINE
  5
251
100
AcDbEntity
  8
0
 62
7
100
AcDbSpline
 70
8
 71
3
 72
8
 73
4
 74
0
 40
0
 40
0
 40
0
 40
0
 40
1
 40
1
 40
1
 40
1
 10
63.941868
 20
-9735.241564
 30
0.0
 10
63.941868
 20
-9735.186874
 30
0.0
 10
63.898898
 20
-9735.140001
 30
0.0
 10
63.840306
 20
-9735.140001
 30
0.0
  0
LWPOLYLINE
  5
252
100
AcDbEntity
  8
0
 62
7
100
AcDbPolyline
 90
2
 70
0
 10
63.941868
 20
-9738.241564
 30
0.0
 10
63.941868
 20
-9735.241564
 30
0.0
  0
SPLINE
  5
253
100
AcDbEntity
  8
0
 62
7
100
AcDbSpline
 70
8
 71
3
 72
8
 73
4
 74
0
 40
0
 40
0
 40
0
 40
0
 40
1
 40
1
 40
1
 40
1
 10
57.840306
 20
-9735.140001
 30
0.0
 10
57.785618
 20
-9735.140001
 30
0.0
 10
57.738743
 20
-9735.182971
 30
0.0
 10
57.738743
 20
-9735.241564
 30
0.0
  0
LWPOLYLINE
  5
254
100
AcDbEntity
  8
0
 62
7
100
AcDbPolyline
 90
2
 70
0
 10
63.840306
 20
-9735.140001
 30
0.0
 10
57.840306
 20
-9735.140001
 30
0.0
  0
SPLINE
  5
255
100
AcDbEntity
  8
0
 62
7
100
AcDbSpline
 70
8
 71
3
 72
8
 73
4
 74
0
 40
0
 40
0
 40
0
 40
0
 40
1
 40
1
 40
1
 40
1
 10
57.738744
 20
-9738.241564
 30
0.0
 10
57.738743
 20
-9738.186874
 30
0.0
 10
57.781712
 20
-9738.140001
 30
0.0
 10
57.840306
 20
-9738.140001
 30
0.0
  0
LWPOLYLINE
  5
256
100
AcDbEntity
  8
0
 62
7
100
AcDbPolyline
 90
2
 70
0
 10
57.738743
 20
-9735.241564
 30
0.0
 10
57.738744
 20
-9738.241564
 30
0.0
  0
SPLINE
  5
257
100
AcDbEntity
  8
0
 62
7
100
AcDbSpline
 70
8
 71
3
 72
8
 73
4
 74
0
 40
0
 40
0
 40
0
 40
0
 40
1
 40
1
 40
1
 40
1
 10
48.340306
 20
-9738.140001
 30
0.0
 10
48.285619
 20
-9738.140001
 30
0.0
 10
48.238743
 20
-9738.182971
 30
0.0
 10
48.238744
 20
-9738.241564
 30
0.0
  0
LWPOLYLINE
  5
258
100
AcDbEntity
  8
0
 62
7
100
AcDbPolyline
 90
2
 70
0
 10
57.840306
 20
-9738.140001
 30
0.0
 10
48.340306
 20
-9738.140001
 30
0.0
  0
SPLINE
  5
259
100
AcDbEntity
  8
0
 62
7
100
AcDbSpline
 70
8
 71
3
 72
8
 73
4
 74
0
 40
0
 40
0
 40
0
 40
0
 40
1
 40
1
 40
1
 40
1
 10
48.238744
 20
-9748.741564
 30
0.0
 10
48.238744
 20
-9748.686874
 30
0.0
 10
48.281712
 20
-9748.640001
 30
0.0
 10
48.340306
 20
-9748.640001
 30
0.0
  0
LWPOLYLINE
  5
25a
100
AcDbEntity
  8
0
 62
7
100
AcDbPolyline
 90
3
 70
0
 10
48.238744
 20
-9738.241564
 30
0.0
 10
48.238744
 20
-9738.241564
 30
0.0
 10
48.238744
 20
-9748.741564
 30
0.0
  0
SPLINE
  5
25b
100
AcDbEntity
  8
0
 62
7
100
AcDbSpline
 70
8
 71
3
 72
8
 73
4
 74
0
 40
0
 40
0
 40
0
 40
0
 40
1
 40
1
 40
1
 40
1
 10
45.340306
 20
-9748.640001
 30
0.0
 10
45.285618
 20
-9748.640001
 30
0.0
 10
45.238744
 20
-9748.682971
 30
0.0
 10
45.238744
 20
-9748.741564
 30
0.0
  0
LWPOLYLINE
  5
25c
100
AcDbEntity
  8
0
 62
7
100
AcDbPolyline
 90
2
 70
0
 10
48.340306
 20
-9748.640001
 30
0.0
 10
45.340306
 20
-9748.640001
 30
0.0
  0
SPLINE
  5
25d
100
AcDbEntity
  8
0
 62
7
100
AcDbSpline
 70
8
 71
3
 72
8
 73
4
 74
0
 40
0
 40
0
 40
0
 40
0
 40
1
 40
1
 40
1
 40
1
 10
45.238744
 20
-9754.741564
 30
0.0
 10
45.238744
 20
-9754.796251
 30
0.0
 10
45.281712
 20
-9754.843126
 30
0.0
 10
45.340306
 20
-9754.843126
 30
0.0
  0
LWPOLYLINE
  5
25e
100
AcDbEntity
  8
0
 62
7
100
AcDbPolyline
 90
2
 70
0
 10
45.238744
 20
-9748.741564
 30
0.0
 10
45.238744
 20
-9754.741564
 30
0.0
  0
SPLINE
  5
25f
100
AcDbEntity
  8
0
 62
7
100
AcDbSpline
 70
8
 71
3
 72
8
 73
4
 74
0
 40
0
 40
0
 40
0
 40
0
 40
1
 40
1
 40
1
 40
1
 10
48.340306
 20
-9754.843126
 30
0.0
 10
48.285619
 20
-9754.843126
 30
0.0
 10
48.238744
 20
-9754.800156
 30
0.0
 10
48.238744
 20
-9754.741564
 30
0.0
  0
LWPOLYLINE
  5
260
100
AcDbEntity
  8
0
 62
7
100
AcDbPolyline
 90
2
 70
0
 10
45.340306
 20
-9754.843126
 30
0.0
 10
48.340306
 20
-9754.843126
 30
0.0
  0
SPLINE
  5
261
100
AcDbEntity
  8
0
 62
7
100
AcDbSpline
 70
8
 71
3
 72
8
 73
4
 74
0
 40
0
 40
0
 40
0
 40
0
 40
1
 40
1
 40
1
 40
1
 10
48.238744
 20
-9765.241564
 30
0.0
 10
48.238744
 20
-9765.296251
 30
0.0
 10
48.281712
 20
-9765.343126
 30
0.0
 10
48.340306
 20
-9765.343126
 30
0.0
  0
LWPOLYLINE
  5
262
100
AcDbEntity
  8
0
 62
7
100
AcDbPolyline
 90
2
 70
0
 10
48.238744
 20
-9754.741564
 30
0.0
 10
48.238744
 20
-9765.241564
 30
0.0
  0
LWPOLYLINE
  5
263
100
AcDbEntity
  8
0
 62
7
100
AcDbPolyline
 90
1
 70
1
 10
48.340306
 20
-9765.343126
 30
0.0
  0
LWPOLYLINE
  5
264
100
AcDbEntity
  8
0
 62
7
100
AcDbPolyline
 90
2
 70
0
 10
48.139353
 20
-9807.788726
 30
0.0
 10
56.107190
 20
-9807.788726
 30
0.0
  0
LWPOLYLINE
  5
265
100
AcDbEntity
  8
0
 62
7
100
AcDbPolyline
 90
2
 70
0
 10
75.538336
 20
-9807.842826
 30
0.0
 10
65.642335
 20
-9807.842826
 30
0.0
  0
LWPOLYLINE
  5
266
100
AcDbEntity
  8
0
 62
7
100
AcDbPolyline
 90
2
 70
0
 10
55.941998
 20
-9803.716326
 30
0.0
 10
55.941998
 20
-9807.932426
 30
0.0
  0
LWPOLYLINE
  5
267
100
AcDbEntity
  8
0
 62
7
100
AcDbPolyline
 90
2
 70
0
 10
65.545867
 20
-9803.724626
 30
0.0
 10
65.545867
 20
-9807.940726
 30
0.0
  0
LWPOLYLINE
  5
268
100
AcDbEntity
  8
0
 62
7
100
AcDbPolyline
 90
2
 70
0
 10
57.511351
 20
-9760.995500
 30
0.0
 10
57.511351
 20
-9743.730500
 30
0.0
  0
LWPOLYLINE
  5
269
100
AcDbEntity
  8
0
 62
7
100
AcDbPolyline
 90
2
 70
0
 10
73.790750
 20
-9760.879700
 30
0.0
 10
57.392495
 20
-9760.879700
 30
0.0
  0
LWPOLYLINE
  5
26a
100
AcDbEntity
  8
0
 62
7
100
AcDbPolyline
 90
2
 70
0
 10
73.792817
 20
-9743.847300
 30
0.0
 10
57.394562
 20
-9743.847300
 30
0.0
  0
LWPOLYLINE
  5
26b
100
AcDbEntity
  8
0
 62
7
100
AcDbPolyline
 90
2
 70
0
 10
73.671894
 20
-9760.993400
 30
0.0
 10
73.671894
 20
-9743.734600
 30
0.0
  0
LWPOLYLINE
  5
26c
100
AcDbEntity
  8
0
 62
7
100
AcDbPolyline
 90
2
 70
0
 10
55.783119
 20
-9803.716300
 30
0.0
 10
65.702997
 20
-9803.726300
 30
0.0
  0
ENDSEC
  0
SECTION
  2
OBJECTS
  0
DICTIONARY
  5
C
330
0
100
AcDbDictionary
  3
ACAD_GROUP
350
D
  3
ACAD_MLINESTYLE
350
17
  0
DICTIONARY
  5
D
330
C
100
AcDbDictionary
  0
DICTIONARY
  5
1A
330
C
100
AcDbDictionary
  0
DICTIONARY
  5
17
330
C
100
AcDbDictionary
  3
STANDARD
350
18
  0
DICTIONARY
  5
19
330
C
100
AcDbDictionary
  0
ENDSEC
  0
EOF
